<svg id="Calque_1" xmlns="http://www.w3.org/2000/svg" viewBox="0 0 377.6 266.7"><style>.st0{fill:#f4f4f4}</style><path class="st0" d="M208.5 88.2c32.8 0 59.5 26.7 59.5 59.5s-26.7 59.5-59.5 59.5-59.5-26.7-59.5-59.5 26.6-59.5 59.5-59.5m0-30c-49.4 0-89.5 40-89.5 89.5 0 49.4 40.1 89.5 89.5 89.5s89.5-40.1 89.5-89.5c-.1-49.4-40.1-89.5-89.5-89.5z"/><path class="st0" d="M83.5 41.7C83.5 18.7 64.8 0 41.7 0 18.7 0 0 18.7 0 41.7c0 23 18.7 41.7 41.7 41.7 23.1.1 41.8-18.7 41.8-41.7zm-65.4 0C18.1 28.6 28.7 18 41.8 18s23.7 10.6 23.7 23.7c0 13-10.6 23.7-23.7 23.7S18.1 54.8 18.1 41.7zm62 141.6c-23 0-41.7 18.7-41.7 41.7 0 23 18.7 41.7 41.7 41.7 23 0 41.7-18.7 41.7-41.7 0-23-18.7-41.7-41.7-41.7zm0 65.4C67 248.7 56.4 238 56.4 225c0-13.1 10.6-23.7 23.7-23.7s23.7 10.6 23.7 23.7c-.1 13-10.7 23.7-23.7 23.7zm255.8-65.4c-23 0-41.7 18.7-41.7 41.7 0 23 18.7 41.7 41.7 41.7 23 0 41.7-18.7 41.7-41.7 0-23-18.7-41.7-41.7-41.7zm0 65.4c-13.1 0-23.7-10.6-23.7-23.7s10.6-23.7 23.7-23.7 23.7 10.6 23.7 23.7-10.7 23.7-23.7 23.7zm-4.2-179.6c0-23-18.7-41.7-41.7-41.7-23 0-41.7 18.7-41.7 41.7 0 23 18.7 41.7 41.7 41.7 23 0 41.7-18.7 41.7-41.7zM290 92.8c-13.1 0-23.7-10.6-23.7-23.7 0-13 10.6-23.7 23.7-23.7s23.7 10.6 23.7 23.7c-.1 13.1-10.7 23.7-23.7 23.7z"/></svg>