<svg xmlns="http://www.w3.org/2000/svg" viewBox="0 0 234.3 34.6"><style>.st0{fill:#009fe3}.st1{fill:#4c6172}</style><g id="Calque_1"><path class="st0" d="M41.9 10.2c-.7 0-1.2.4-1.5 1l-5.5 12.5-5.5-12.5c-.1-.3-.4-.6-.6-.8-.3-.2-.6-.3-.9-.3-.8 0-1.3.4-1.5 1.3l-4.6 16.7h3.1l3.4-12.5 5 11.5c.3.8.9 1.2 1.6 1.2.4 0 .7-.1.9-.3.3-.2.5-.5.6-.9l5-11.5 3.4 12.5h3.1l-4.5-16.7c-.3-.7-.8-1.2-1.5-1.2zm11 18H56V10.5h-3.1v17.7zm24.5-4.9L64.8 10.9c-.2-.2-.4-.4-.7-.5-.2-.1-.4-.1-.7-.1-.5 0-.9.2-1.2.5-.3.3-.4.8-.4 1.4v16.1h3v-13l12.5 12.5c.4.4.9.7 1.4.7.5 0 .8-.2 1.1-.5.3-.3.4-.8.4-1.4V10.3h-3v13zm27-7.7c-.4-1.1-1-2-1.8-2.7-.8-.8-1.7-1.4-2.7-1.8-1.1-.4-2.2-.6-3.5-.6H86.1v17.7h10.3c1.3 0 2.4-.2 3.5-.7 1.1-.5 2-1.1 2.7-1.9.8-.8 1.4-1.8 1.8-2.9.4-1.1.6-2.3.6-3.6 0-1.2-.2-2.4-.6-3.5zm-2.9 6c-.3.7-.7 1.3-1.2 1.8s-1.1.9-1.8 1.2c-.7.3-1.4.4-2.2.4h-7.2V13.5h7.2c.8 0 1.5.1 2.2.4.7.3 1.3.7 1.8 1.2s.9 1.1 1.2 1.8c.3.7.4 1.5.4 2.3 0 .9-.1 1.7-.4 2.4z"/><path class="st1" d="M18.4 19.7c0-2.4-.7-4.5-2-6.1-1.8-2.3-4.3-3.5-7.3-3.5-2.9 0-5.3 1.1-7.1 3.4-1.4 1.8-2.1 3.8-2.1 6 0 2.4.8 4.6 2.5 6.4 1.6 1.9 3.9 2.9 6.8 2.9 1.3 0 2.5-.2 3.5-.6 1-.4 2-1 2.8-1.7.8-.8 1.6-1.8 2.2-3l.2-.3h-3.5c-.4.5-.7.9-1.1 1.2-.5.5-1.2.8-1.9 1.1-.8.3-1.6.4-2.4.4-1.7 0-3-.6-4.2-1.7-1-1.1-1.6-2.4-1.7-4.1h15.2l.1-.4zM3.5 17.3c.4-1.2 1-2.1 1.7-2.7 1.1-1 2.4-1.5 4-1.5.9 0 1.8.2 2.7.6.8.4 1.5.9 2 1.6.4.5.8 1.2 1 2H3.5zm121.1.5h-11.2v-7.3h-3.1v17.8h3.1v-7.7h11.2v7.7h3.1V10.5h-3.1v7.3zm24.8 2.6c0 .9-.1 1.7-.3 2.3-.2.6-.6 1.2-1.1 1.6-.5.4-1.2.7-2 .9-.8.2-1.9.3-3.1.3-1.2 0-2.2-.1-3.1-.3-.8-.2-1.5-.5-2-.9s-.9-.9-1.1-1.6c-.2-.6-.3-1.4-.3-2.3v-9.9h-3.2v9.9c0 1.4.2 2.6.5 3.6.4 1 .9 1.9 1.7 2.5.8.7 1.8 1.2 3 1.5 1.2.3 2.7.5 4.4.5 1.7 0 3.2-.2 4.4-.5 1.2-.3 2.2-.8 3-1.5.8-.7 1.3-1.5 1.7-2.5.4-1 .5-2.2.5-3.6v-9.9h-3v9.9zm26.9-.2c-.5-.7-1.2-1.2-2-1.4.3-.1.6-.2.9-.5.3-.2.6-.5.8-.8.2-.3.4-.7.5-1.1.1-.4.2-.9.2-1.5 0-.7-.1-1.4-.4-2-.3-.6-.7-1.1-1.2-1.4-.5-.4-1.1-.7-1.8-.9-.7-.2-1.5-.3-2.4-.3h-13V28h13.3c.9 0 1.6-.1 2.4-.4.7-.3 1.3-.6 1.8-1.1.5-.5.9-1 1.1-1.7.3-.7.4-1.4.4-2.2.2-.8-.1-1.7-.6-2.4zm-15.2-6.7h8.7c.6 0 1.1 0 1.6.1.5 0 .9.2 1.2.3.3.2.6.4.8.7.2.3.3.7.3 1.1 0 .8-.2 1.3-.6 1.7-.4.3-1.1.5-2 .5h-9.9v-4.4zm12.5 10.4c-.2.3-.5.5-.8.7-.3.2-.7.3-1.2.4-.5.1-1 .1-1.5.1h-9v-4.6h10.1c.9 0 1.5.2 2 .6.5.4.7 1 .7 1.7 0 .4-.1.8-.3 1.1z"/></g><g id="Calque_2"><path class="st1" d="M212.3 11.4c4.3 0 7.7 3.5 7.7 7.7 0 4.3-3.5 7.7-7.7 7.7-4.3 0-7.7-3.5-7.7-7.7s3.5-7.7 7.7-7.7m0-3.8c-6.4 0-11.6 5.2-11.6 11.6 0 6.4 5.2 11.6 11.6 11.6 6.4 0 11.6-5.2 11.6-11.6.1-6.4-5.1-11.6-11.6-11.6z"/><path class="st0" d="M196.1 5.4c0-3-2.4-5.4-5.4-5.4-3 0-5.4 2.4-5.4 5.4 0 3 2.4 5.4 5.4 5.4 3 0 5.4-2.4 5.4-5.4zm-8.5 0c0-1.7 1.4-3.1 3.1-3.1 1.7 0 3.1 1.4 3.1 3.1 0 1.7-1.4 3.1-3.1 3.1-1.7 0-3.1-1.4-3.1-3.1zm8.1 18.4c-3 0-5.4 2.4-5.4 5.4 0 3 2.4 5.4 5.4 5.4 3 0 5.4-2.4 5.4-5.4 0-3-2.4-5.4-5.4-5.4zm0 8.5c-1.7 0-3.1-1.4-3.1-3.1 0-1.7 1.4-3.1 3.1-3.1 1.7 0 3.1 1.4 3.1 3.1 0 1.7-1.4 3.1-3.1 3.1zm33.2-8.5c-3 0-5.4 2.4-5.4 5.4 0 3 2.4 5.4 5.4 5.4 3 0 5.4-2.4 5.4-5.4 0-3-2.4-5.4-5.4-5.4zm0 8.5c-1.7 0-3.1-1.4-3.1-3.1 0-1.7 1.4-3.1 3.1-3.1 1.7 0 3.1 1.4 3.1 3.1 0 1.7-1.4 3.1-3.1 3.1zM228.3 9c0-3-2.4-5.4-5.4-5.4-3 0-5.4 2.4-5.4 5.4 0 3 2.4 5.4 5.4 5.4 3 0 5.4-2.4 5.4-5.4zm-5.4 3c-1.7 0-3.1-1.4-3.1-3.1 0-1.7 1.4-3.1 3.1-3.1S226 7.3 226 9c0 1.7-1.4 3-3.1 3z"/></g></svg>