<svg xmlns="http://www.w3.org/2000/svg" viewBox="0 0 177.1 85.7"><style>.st0{fill:#009fe3}.st1{fill:#4c6172}</style><g id="Calque_1"><path class="st0" d="M41.9 67.1c-.7 0-1.2.4-1.5 1l-5.5 12.5-5.5-12.5c-.1-.3-.4-.6-.6-.8-.3-.2-.6-.3-.9-.3-.8 0-1.3.4-1.5 1.3L21.8 85h3.1l3.4-12.5 5 11.5c.3.8.9 1.2 1.6 1.2.4 0 .7-.1.9-.3.3-.2.5-.5.6-.9l5-11.5L44.8 85h3.1l-4.5-16.7c-.3-.8-.8-1.2-1.5-1.2zm11 17.9H56V67.3h-3.1V85zm24.5-4.9L64.8 67.7c-.2-.2-.4-.4-.7-.5-.2-.1-.4-.1-.7-.1-.5 0-.9.2-1.2.5-.3.3-.4.8-.4 1.4v16h3V72l12.5 12.5c.4.4.9.7 1.4.7.5 0 .8-.2 1.1-.5.3-.3.4-.8.4-1.4V67.1h-3v13zm27-7.7c-.4-1.1-1-2-1.8-2.7-.8-.8-1.7-1.4-2.7-1.8-1.1-.4-2.2-.6-3.5-.6H86.1V85h10.3c1.3 0 2.4-.2 3.5-.7 1.1-.5 2-1.1 2.7-1.9.8-.8 1.4-1.8 1.8-2.9.4-1.1.6-2.3.6-3.6 0-1.2-.2-2.4-.6-3.5zm-2.9 6c-.3.7-.7 1.3-1.2 1.8s-1.1.9-1.8 1.2c-.7.3-1.4.4-2.2.4h-7.2V70.4h7.2c.8 0 1.5.1 2.2.4.7.3 1.3.7 1.8 1.2s.9 1.1 1.2 1.8c.3.7.4 1.5.4 2.3 0 .9-.1 1.6-.4 2.3z"/><path class="st1" d="M18.4 76.5c0-2.4-.7-4.5-2-6.1-1.8-2.3-4.3-3.5-7.3-3.5-2.9 0-5.3 1.1-7.1 3.4-1.4 1.8-2.1 3.8-2.1 6 0 2.4.8 4.6 2.5 6.4 1.6 1.9 3.9 2.9 6.8 2.9 1.3 0 2.5-.2 3.5-.6 1-.4 2-1 2.8-1.7.8-.8 1.6-1.8 2.2-3l.3-.3h-3.5c-.4.5-.7.9-1.1 1.2-.5.5-1.2.8-1.9 1.1-.8.3-1.6.4-2.4.4-1.7 0-3-.6-4.2-1.7-1-1.1-1.6-2.4-1.7-4.1h15.2v-.4zM3.5 74.2c.4-1.2 1-2.1 1.7-2.7 1.1-1 2.4-1.5 4-1.5.9 0 1.8.2 2.7.6.8.4 1.5.9 2 1.6.4.5.8 1.2 1 2H3.5zm121.1.4h-11.2v-7.3h-3.1v17.8h3.1v-7.7h11.2v7.7h3.1V67.3h-3.1v7.3zm24.8 2.6c0 .9-.1 1.7-.3 2.3-.2.6-.6 1.2-1.1 1.6-.5.4-1.2.7-2 .9-.8.2-1.9.3-3.1.3-1.2 0-2.2-.1-3.1-.3-.8-.2-1.5-.5-2-.9s-.9-.9-1.1-1.6c-.2-.6-.3-1.4-.3-2.3v-9.9h-3.2v9.9c0 1.4.2 2.6.5 3.6.4 1 .9 1.9 1.7 2.5.8.7 1.8 1.2 3 1.5 1.2.3 2.7.5 4.4.5 1.7 0 3.2-.2 4.4-.5 1.2-.3 2.2-.8 3-1.5.8-.7 1.3-1.5 1.7-2.5.4-1 .5-2.2.5-3.6v-9.9h-3v9.9zm26.9-.1c-.5-.7-1.2-1.2-2-1.4.3-.1.6-.2.9-.5.3-.2.6-.5.8-.8.2-.3.4-.7.5-1.1.1-.4.2-.9.2-1.5 0-.7-.1-1.4-.4-2-.3-.6-.7-1.1-1.2-1.4-.5-.4-1.1-.7-1.8-.9-.7-.2-1.5-.3-2.4-.3h-13V85h13.3c.9 0 1.6-.1 2.4-.4.7-.3 1.3-.6 1.8-1.1.5-.5.9-1 1.1-1.7.3-.7.4-1.4.4-2.2.2-1-.1-1.8-.6-2.5zm-15.2-6.7h8.7c.6 0 1.1 0 1.6.1.5 0 .9.2 1.2.3.3.2.6.4.8.7.2.3.3.7.3 1.1 0 .8-.2 1.3-.6 1.7-.4.3-1.1.5-2 .5h-9.9v-4.4zm12.5 10.3c-.2.3-.5.5-.8.7-.3.2-.7.3-1.2.4-.5.1-1 .1-1.5.1h-9v-4.6h10.1c.9 0 1.5.2 2 .6.5.4.7 1 .7 1.7 0 .5-.1.8-.3 1.1z"/></g><g id="Calque_2"><path class="st1" d="M91.6 17.2c6.4 0 11.6 5.2 11.6 11.6 0 6.4-5.2 11.6-11.6 11.6-6.4 0-11.6-5.2-11.6-11.6.1-6.4 5.2-11.6 11.6-11.6m0-5.9c-9.6 0-17.4 7.8-17.4 17.4 0 9.6 7.8 17.4 17.4 17.4 9.6 0 17.4-7.8 17.4-17.4 0-9.6-7.7-17.4-17.4-17.4z"/><path class="st0" d="M67.3 8.1c0-4.5-3.6-8.1-8.1-8.1s-8.1 3.6-8.1 8.1 3.6 8.1 8.1 8.1 8.1-3.6 8.1-8.1zm-12.7 0c0-2.5 2.1-4.6 4.6-4.6 2.5 0 4.6 2.1 4.6 4.6 0 2.5-2.1 4.6-4.6 4.6-2.6 0-4.6-2-4.6-4.6zm12 27.6c-4.5 0-8.1 3.6-8.1 8.1s3.6 8.1 8.1 8.1 8.1-3.6 8.1-8.1c.1-4.5-3.6-8.1-8.1-8.1zm0 12.7c-2.5 0-4.6-2.1-4.6-4.6 0-2.5 2.1-4.6 4.6-4.6 2.5 0 4.6 2.1 4.6 4.6.1 2.5-2 4.6-4.6 4.6zm49.8-12.7c-4.5 0-8.1 3.6-8.1 8.1s3.6 8.1 8.1 8.1 8.1-3.6 8.1-8.1c.1-4.5-3.6-8.1-8.1-8.1zm0 12.7c-2.5 0-4.6-2.1-4.6-4.6 0-2.5 2.1-4.6 4.6-4.6 2.5 0 4.6 2.1 4.6 4.6 0 2.5-2 4.6-4.6 4.6zm-.8-35c0-4.5-3.6-8.1-8.1-8.1s-8.1 3.6-8.1 8.1 3.6 8.1 8.1 8.1c4.5.1 8.1-3.6 8.1-8.1zm-8.1 4.7c-2.5 0-4.6-2.1-4.6-4.6 0-2.5 2.1-4.6 4.6-4.6 2.5 0 4.6 2.1 4.6 4.6 0 2.5-2.1 4.6-4.6 4.6z"/></g></svg>