<?xml version="1.0" encoding="utf-8"?>
<svg version="1.1" id="PDF" xmlns="http://www.w3.org/2000/svg" xmlns:xlink="http://www.w3.org/1999/xlink" x="0px" y="0px"
	 viewBox="0 0 26 25.2" style="enable-background:new 0 0 26 25.2;" xml:space="preserve">
<path fill="#009fe3" d="M26,16.6c0-0.3-0.1-0.6-0.4-0.8c-0.5-0.5-1.7-0.7-3.3-0.7c-1.2,0-2.7,0.1-4.3,0.3C17.4,15,16.6,14.5,16,14
	c-1.5-1.4-2.8-3.4-3.6-5.6c0.1-0.2,0.1-0.4,0.2-0.6c0.2-1,0.4-4.3,0.4-4.3s-0.6,2.5-0.7,2.8C12.1,6.5,12,6.7,11.9,7
	c-0.5-1.7-0.7-3.3-0.7-4.6c0-0.4,0-1,0.1-1.6c0-0.4,0.2-0.6,0.3-0.7c0.3,0.1,0.6,0.5,1,1.3c0.3,0.6,0.3,1.4,0.3,1.8
	c0,0,0.3-1.1,0.2-1.8C13.1,1,12.7,0,11.9,0h-0.1l-0.4,0c-0.6,0-1.2,0.3-1.3,0.8c-0.5,1.8,0.1,4.7,1,8.2l-0.3,0.7
	c-0.7,1.7-1.6,3.5-2.4,5l0,0c-3.3,6.3-5.8,9.8-7.5,10l0-0.1c0-0.8,1.4-2.8,3.4-4.4c0.2-0.2,1.1-1,1.1-1S4.2,19.8,4,19.9
	c-2.5,1.5-3.7,3-4,3.9c-0.1,0.3,0,0.7,0.2,0.8L0.9,25c1.7,0.9,3.9-1.4,6.7-6.3c2.9-0.9,6.5-1.8,9.8-2.3c2.9,1.7,6.3,2.5,7.6,2.1
	c0.2-0.1,0.5-0.3,0.6-0.4c0.1-0.2,0.2-0.8,0.2-0.8s-0.2,0.3-0.4,0.4c-0.8,0.4-3.4-0.3-6.1-1.5c2.3-0.2,4.2-0.3,5.2,0.1
	C26,16.6,26,17,26,17.1C26,17,26,16.7,26,16.6z M7.9,18.1c0.5-0.9,1-1.8,1.6-2.8l0,0c1.1-2,1.7-3.5,2.2-4.9c0.9,1.7,2,3.3,3.6,4.6
	c0.3,0.3,0.7,0.6,1.1,0.8C13.6,16.2,10.6,16.9,7.9,18.1z"/>
</svg>
