<svg xmlns="http://www.w3.org/2000/svg" viewBox="0 0 26 25.2"><path fill="#009fe3" d="M26 16.6c0-.3-.1-.6-.4-.8-.5-.5-1.7-.7-3.3-.7-1.2 0-2.7.1-4.3.3-.6-.4-1.4-.9-2-1.4-1.5-1.4-2.8-3.4-3.6-5.6.1-.2.1-.4.2-.6.2-1 .4-4.3.4-4.3s-.6 2.5-.7 2.8c-.2.2-.3.4-.4.7-.5-1.7-.7-3.3-.7-4.6 0-.4 0-1 .1-1.6 0-.4.2-.6.3-.7.3.1.6.5 1 1.3.3.6.3 1.4.3 1.8 0 0 .3-1.1.2-1.8 0-.4-.4-1.4-1.2-1.4h-.5c-.6 0-1.2.3-1.3.8-.5 1.8.1 4.7 1 8.2l-.3.7c-.7 1.7-1.6 3.5-2.4 5-3.3 6.3-5.8 9.8-7.5 10v-.1c0-.8 1.4-2.8 3.4-4.4.2-.2 1.1-1 1.1-1l-1.4.7c-2.5 1.5-3.7 3-4 3.9-.1.3 0 .7.2.8l.7.4c1.7.9 3.9-1.4 6.7-6.3 2.9-.9 6.5-1.8 9.8-2.3 2.9 1.7 6.3 2.5 7.6 2.1.2-.1.5-.3.6-.4.1-.2.2-.8.2-.8s-.2.3-.4.4c-.8.4-3.4-.3-6.1-1.5 2.3-.2 4.2-.3 5.2.1 1.5.3 1.5.7 1.5.8v-.5zM7.9 18.1c.5-.9 1-1.8 1.6-2.8 1.1-2 1.7-3.5 2.2-4.9.9 1.7 2 3.3 3.6 4.6.3.3.7.6 1.1.8-2.8.4-5.8 1.1-8.5 2.3z"/></svg>