<?xml version="1.0" encoding="utf-8"?>
<svg version="1.1" id="Community" xmlns="http://www.w3.org/2000/svg" xmlns:xlink="http://www.w3.org/1999/xlink" x="0px" y="0px"
	 viewBox="-57.2 243.4 230 173" style="enable-background:new -57.2 243.4 230 173;" xml:space="preserve">
<style type="text/css">
	.st0{fill:#009FE3;}
</style>
<path class="st0" d="M96.7,353.2c-4.5-7-10-11.5-17.7-14.1c0,0-5.9-3-21.3-3c-15.4,0-21.3,3-21.3,3c-7.8,2.6-13.2,7.1-17.8,14.1
	c-1.8,2.7-2.7,8.3-2.8,11.2c0,0.8,0,1.7,0,2.5v1.6c0,5.6,3.8,10.2,8.6,10.2H91c4.7,0,8.6-4.6,8.6-10.2v-1.6c0-0.9,0-1.8,0-2.5
	C99.5,361.4,98.5,355.9,96.7,353.2z M57.7,329.7c15,0,23.4-19.1,23.4-32.2c0-13-10.5-23.6-23.4-23.6c-12.9,0-23.4,10.6-23.4,23.6
	C34.3,310.5,42.4,329.7,57.7,329.7z M31.9,333.1c-3.8-4.8-8.3-8.1-14.4-10.1c0,0-5.5-2.8-19.9-2.8c-14.4,0-19.9,2.8-19.9,2.8
	c-7.3,2.4-12.4,6.6-16.6,13.1c-1.7,2.6-2.6,7.7-2.6,10.5c0,0.7,0,1.5,0,2.4v1.5c0,5.3,3.6,9.5,8,9.5H6.7c0.6-3.3,1.6-7,3-9.2
	C15.4,342.1,22.2,336.4,31.9,333.1z M-2.4,314.2c14.1,0,21.9-17.9,21.9-30.1c0-12.2-9.8-22.1-21.9-22.1c-12.1,0-21.9,9.9-21.9,22.1
	C-24.3,296.3-16.7,314.2-2.4,314.2z M157,346.7c-0.1-2.8-1-7.9-2.6-10.5c-4.2-6.5-9.3-10.7-16.6-13.1c0,0-5.5-2.8-19.9-2.8
	c-14.4,0-19.9,2.8-19.9,2.8c-6.1,2-10.6,5.3-14.4,10.1c9.7,3.3,16.5,9,22.2,17.7c1.4,2.2,2.5,5.9,3,9.2h40.1c4.4,0,8-4.3,8-9.5v-1.5
	C157,348.2,156.9,347.4,157,346.7z M117.9,314.2c14.3,0,21.9-17.9,21.9-30.1s-9.8-22.1-21.9-22.1c-12.1,0-21.9,9.9-21.9,22.1
	C96,296.3,103.8,314.2,117.9,314.2z"/>
</svg>
