<?xml version="1.0" encoding="utf-8"?>
<svg version="1.1" id="C" xmlns="http://www.w3.org/2000/svg" xmlns:xlink="http://www.w3.org/1999/xlink" x="0px" y="0px"
	 viewBox="0 0 95.3 95.3" style="enable-background:new 0 0 95.3 95.3;" xml:space="preserve">
<style type="text/css">
	.st0{fill:#249BD7;}
</style>
<path class="st0" d="M47.7,15.5c-17.7,0-32.1,14.4-32.1,32.1s14.4,32.1,32.1,32.1c17.7,0,32.1-14.4,32.1-32.1S65.4,15.5,47.7,15.5z
	 M48.5,58.2c1.6,0,3.1-0.2,4.5-0.7c1.5-0.4,2.9-1,4.4-1.6v8.1c-2.9,1.3-6.3,2-10,2c-5.3,0-9.4-1.5-12.2-4.6C32.4,58.3,31,53.8,31,48
	c0-3.6,0.7-6.9,2.1-9.6c1.4-2.8,3.4-4.9,5.9-6.4c2.6-1.5,5.6-2.2,9.1-2.2c3.8,0,7.4,0.8,10.9,2.5l-2.9,7.5c-1.3-0.6-2.6-1.1-3.9-1.5
	c-1.3-0.4-2.7-0.6-4.2-0.6c-2.3,0-4,0.9-5.3,2.8c-1.3,1.9-1.9,4.4-1.9,7.7C40.8,54.8,43.4,58.2,48.5,58.2z M87.9,47.7l7.4-9.6
	l-10.5-5.8L88,20.7l-11.9-1.3L74.6,7.3l-11.5,3.4L57.1,0l-9.4,7.6L38.2,0l-5.8,10.7L20.7,7.3l-1.3,12.1L7.3,20.7l3.4,11.7L0,38.2
	l7.6,9.6L0,57.1l10.7,6L7.3,74.6l12.1,1.5L20.7,88l11.7-3.2l5.8,10.5l9.6-7.4l9.4,7.4l6-10.5L74.6,88l1.5-11.9L88,74.6l-3.2-11.5
	l10.5-6L87.9,47.7z M47.7,81.1c-18.5,0-33.5-15-33.5-33.5c0-18.5,15-33.5,33.5-33.5c18.5,0,33.5,15,33.5,33.5
	C81.2,66.2,66.2,81.1,47.7,81.1z"/>
</svg>
