<?xml version="1.0" encoding="utf-8"?>
<svg version="1.1" xmlns="http://www.w3.org/2000/svg" xmlns:xlink="http://www.w3.org/1999/xlink" x="0px" y="0px"
	 viewBox="0 0 113.4 113.4" style="enable-background:new 0 0 113.4 113.4;" xml:space="preserve">
<g id="disciplines">
	<path class="st0" d="M31.2,7.4l-2.4,8.2c-2.1,0.6-4.2,1.4-6,2.5L15.4,14l-6.6,6.6l4.1,7.4c-1.1,1.9-1.9,3.9-2.5,6l-8.2,2.4l0,9.4
		l8.2,2.4c0.6,2.1,1.4,4.2,2.5,6l-4.1,7.4l6.6,6.6l7.4-4.1c1.9,1.1,3.9,1.9,6,2.5l2.4,8.2h9.4l2.4-8.2c2.1-0.6,4.2-1.4,6-2.5
		l7.4,4.1l6.6-6.6L59,54.2c1.1-1.9,1.9-3.9,2.5-6l8.2-2.4l0-9.4l-8.2-2.4C60.9,32,60,29.9,59,28l4.1-7.4L56.4,14L49,18.1
		c-1.9-1.1-3.9-1.9-6-2.5l-2.4-8.2L31.2,7.4z M35.9,26.9c7.9,0,14.3,6.4,14.3,14.3c0,7.9-6.4,14.3-14.3,14.3
		c-7.9,0-14.3-6.4-14.3-14.3C21.7,33.3,28.1,26.9,35.9,26.9z M84.5,59.3L83,65c-1.5,0.4-2.9,1-4.2,1.7l-5.2-2.9L69,68.4l2.9,5.2
		c-0.7,1.3-1.3,2.7-1.7,4.2l-5.7,1.6v6.6l5.7,1.6c0.4,1.5,1,2.9,1.7,4.2L69,96.9l4.6,4.6l5.2-2.9c1.3,0.7,2.7,1.3,4.2,1.7l1.6,5.7
		h6.6l1.6-5.7c1.5-0.4,2.9-1,4.2-1.7l5.2,2.9l4.6-4.6l-2.9-5.2c0.7-1.3,1.3-2.7,1.7-4.2l5.7-1.6l0-6.6l-5.7-1.6
		c-0.4-1.5-1-2.9-1.7-4.2l2.9-5.2l-4.6-4.6l-5.2,2.9c-1.3-0.7-2.7-1.3-4.2-1.7l-1.6-5.7H84.5z M87.8,74.8c4.3,0,7.8,3.5,7.8,7.8
		c0,4.3-3.5,7.8-7.8,7.8c-4.3,0-7.8-3.5-7.8-7.8C80,78.3,83.5,74.8,87.8,74.8z"/>
</g>
</svg>
