<svg xmlns="http://www.w3.org/2000/svg" width="28" height="28" viewBox="0 0 28 28">
    <path fill="#009FE3" fill-rule="evenodd" d="M13.963 0C6.25 0 0 6.253 0 13.965c0 7.714 6.251 13.966 13.963 13.966 7.711 0 13.963-6.252 13.963-13.966C27.926 6.253 21.674 0 13.963 0zm2.953 12.89c-.682-.376-1.407-.663-2.124-.961-.416-.172-.814-.373-1.166-.653-.692-.553-.56-1.45.251-1.805.23-.1.47-.132.714-.147.94-.05 1.833.122 2.683.531.424.205.564.14.707-.301.15-.466.276-.94.416-1.41.094-.316-.021-.524-.319-.656a6.821 6.821 0 0 0-1.693-.506c-.768-.119-.768-.122-.772-.893-.003-1.087-.003-1.087-1.094-1.087-.158 0-.315-.004-.473 0-.51.014-.596.104-.61.617-.007.23 0 .459-.004.692-.003.682-.007.67-.66.908-1.578.574-2.554 1.65-2.658 3.372-.093 1.524.703 2.554 1.955 3.304.771.462 1.625.735 2.443 1.097.32.14.624.302.89.524.785.65.642 1.73-.29 2.138-.5.22-1.027.273-1.568.205-.836-.104-1.636-.323-2.39-.714-.44-.23-.57-.169-.72.308-.13.413-.245.829-.36 1.245-.154.56-.096.693.438.954.682.33 1.41.5 2.153.617.58.094.599.119.606.722.003.272.003.548.007.821.004.344.169.545.524.552.402.008.807.008 1.209-.003.33-.007.498-.187.498-.52 0-.373.018-.75.004-1.123-.018-.38.147-.574.513-.675a4.054 4.054 0 0 0 2.113-1.356c1.535-1.865.95-4.595-1.223-5.797z"/>
</svg>
