<?xml version="1.0" encoding="utf-8"?>
<svg version="1.1" xmlns="http://www.w3.org/2000/svg" xmlns:xlink="http://www.w3.org/1999/xlink" x="0px" y="0px"
	 viewBox="0 0 98 98" style="enable-background:new 0 0 98 98;" xml:space="preserve">
<style type="text/css">
	.st0{fill:#009FE3;}
</style>
<g id="cv">
	<path class="st0" d="M60.6,22.5H31.1c-0.7,0-1.3,0.6-1.3,1.3v50.4c0,0.7,0.6,1.3,1.3,1.3h35.8c0.7,0,1.3-0.6,1.3-1.3V30.1
		L60.6,22.5z M49.3,35.3c3.2,0,5.9,2.6,5.9,5.9c0,3.2-2.1,8-5.9,8c-3.8,0-5.9-4.8-5.9-8C43.5,37.9,46.1,35.3,49.3,35.3z M59.8,58.5
		v0.4c0,1.4-1,2.5-2.1,2.5H41c-1.2,0-2.1-1.1-2.1-2.5v-0.4c0-0.2,0-0.4,0-0.6c0-0.7,0.3-2.1,0.7-2.8c1.1-1.7,2.5-2.9,4.4-3.5
		c0,0,1.5-0.8,5.3-0.8c3.8,0,5.3,0.8,5.3,0.8c2,0.6,3.3,1.8,4.4,3.5c0.4,0.7,0.7,2.1,0.7,2.8C59.8,58,59.8,58.2,59.8,58.5z M66,32.4
		h-6.1c-0.5,0-0.9-0.4-0.9-0.9v-6.1c0-0.5,0.4-0.9,0.9-0.9c0.5,0,0.9,0.4,0.9,0.9v5.2H66c0.5,0,0.9,0.4,0.9,0.9
		C66.9,32,66.5,32.4,66,32.4z"/>
</g>
<g id="circle">
	<path class="st0" d="M49,0C21.9,0,0,21.9,0,49c0,27.1,21.9,49,49,49c27.1,0,49-21.9,49-49C98,21.9,76.1,0,49,0z M49,96
		C23,96,2,75,2,49C2,23,23,2,49,2c26,0,47,21,47,47C96,75,75,96,49,96z"/>
</g>
</svg>
