<?xml version="1.0" encoding="utf-8"?>
<svg version="1.1" xmlns="http://www.w3.org/2000/svg" xmlns:xlink="http://www.w3.org/1999/xlink" x="0px" y="0px"
	 viewBox="0 0 98 98" style="enable-background:new 0 0 98 98;" xml:space="preserve">
<style type="text/css">
	.st0{fill:#009FE3;}
</style>
<g id="missions">
	<path class="st0" d="M67,61.9c-2.1-3.4-4.7-5.5-8.4-6.8c0,0-2.8-1.5-10.1-1.5c-7.3,0-10.1,1.5-10.1,1.5c-3.7,1.2-6.3,3.4-8.4,6.8
		c-0.8,1.3-1.3,4-1.3,5.4c0,0.4,0,0.8,0,1.2V71v-1.7c0,2.7,1.8,4.9,4.1,4.9h31.6c2.2,0,4.1-2.2,4.1-4.9V71v-2.4c0-0.4,0-0.9,0-1.2
		C68.3,65.9,67.9,63.3,67,61.9 M37.4,35.1c0,6.3,3.9,15.5,11.1,15.5c7.1,0,11.1-9.2,11.1-15.5c0-6.3-5-11.4-11.1-11.4
		C42.4,23.8,37.4,28.9,37.4,35.1"/>
</g>
<g id="circle">
	<path class="st0" d="M49,0C21.9,0,0,21.9,0,49c0,27.1,21.9,49,49,49c27.1,0,49-21.9,49-49C98,21.9,76.1,0,49,0z M49,96
		C23,96,2,75,2,49C2,23,23,2,49,2c26,0,47,21,47,47C96,75,75,96,49,96z"/>
</g>
</svg>
