<?xml version="1.0" encoding="utf-8"?>
<svg version="1.1" xmlns="http://www.w3.org/2000/svg" xmlns:xlink="http://www.w3.org/1999/xlink" x="0px" y="0px"
	 viewBox="0 0 98 98" style="enable-background:new 0 0 98 98;" xml:space="preserve">
<style type="text/css">
	.st0{fill:#009FE3;}
</style>
<g id="faq">
	<path class="st0" d="M32.9,40.3c0.9,0.9,2,1.4,3.3,1.4c2.2,0,3.7-1.3,4.5-4c0.8-2.5,1.9-4.4,3.1-5.7c1.2-1.3,3.1-1.9,5.7-1.9
		c2.2,0,4,0.6,5.4,1.9c1.4,1.3,2.1,2.9,2.1,4.7c0,1-0.2,1.8-0.7,2.7c-0.5,0.8-1,1.6-1.7,2.2c-0.7,0.7-1.8,1.7-3.2,3
		c-1.7,1.5-3.1,2.8-4.1,3.9c-1,1.1-1.8,2.3-2.4,3.8c-0.6,1.4-0.9,3.1-0.9,5.1c0,1.6,0.4,2.7,1.2,3.5c0.8,0.8,1.9,1.2,3.1,1.2
		c2.3,0,3.7-1.2,4.2-3.6c0.3-1.1,0.5-1.9,0.6-2.4c0.1-0.5,0.3-0.9,0.5-1.4c0.2-0.5,0.6-1,1.1-1.5c0.5-0.5,1.1-1.2,1.9-1.9
		c2.9-2.6,4.9-4.4,6-5.5c1.1-1.1,2.1-2.4,2.9-3.9c0.8-1.5,1.2-3.2,1.2-5.2c0-2.5-0.7-4.9-2.1-7c-1.4-2.1-3.4-3.8-6-5.1
		c-2.6-1.2-5.6-1.9-9-1.9c-3.7,0-6.8,0.7-9.6,2.2c-2.7,1.5-4.8,3.4-6.3,5.7c-1.4,2.3-2.1,4.5-2.1,6.7C31.5,38.4,32,39.4,32.9,40.3z
		 M52.3,74.2c1.1-0.9,1.6-2.2,1.6-3.8c0-1.5-0.5-2.7-1.5-3.7c-1-1-2.2-1.5-3.7-1.5c-1.5,0-2.8,0.5-3.8,1.5c-1,1-1.5,2.2-1.5,3.7
		c0,1.7,0.5,2.9,1.6,3.9c1.1,0.9,2.3,1.4,3.7,1.4C50.1,75.6,51.3,75.2,52.3,74.2z"/>
</g>
<g id="circle">
	<path class="st0" d="M49,0C21.9,0,0,21.9,0,49c0,27.1,21.9,49,49,49c27.1,0,49-21.9,49-49C98,21.9,76.1,0,49,0z M49,96
		C23,96,2,75,2,49C2,23,23,2,49,2c26,0,47,21,47,47C96,75,75,96,49,96z"/>
</g>
</svg>
