<?xml version="1.0" encoding="utf-8"?>
<!-- Generated by IcoMoon.io -->
<!DOCTYPE svg PUBLIC "-//W3C//DTD SVG 1.1//EN" "http://www.w3.org/Graphics/SVG/1.1/DTD/svg11.dtd">
<svg version="1.1" xmlns="http://www.w3.org/2000/svg" xmlns:xlink="http://www.w3.org/1999/xlink" width="98" height="98" viewBox="0 0 98 98">
<path fill="#009fe3" d="M60.155 34.047c-1.268-1.972-2.838-3.19-5.072-3.944 0 0-1.691-0.87-6.098-0.87s-6.098 0.87-6.098 0.87c-2.234 0.696-3.804 1.972-5.072 3.944-0.483 0.754-0.785 2.32-0.785 3.132 0 0.232 0 0.464 0 0.696v0.464c0 1.566 1.087 2.842 2.476 2.842h19.080c1.328 0 2.476-1.276 2.476-2.842v0.986-1.392c0-0.232 0-0.522 0-0.696-0.121-0.87-0.362-2.378-0.906-3.19zM42.283 18.504c0 3.654 2.355 8.989 6.702 8.989 4.287 0 6.702-5.336 6.702-8.989s-3.019-6.612-6.702-6.612c-3.683 0.058-6.702 3.016-6.702 6.612z"></path>
<path fill="#009fe3" d="M44.511 73.787c-1.268-1.972-2.838-3.19-5.072-3.944 0 0-1.691-0.87-6.098-0.87s-6.098 0.87-6.098 0.87c-2.234 0.696-3.804 1.972-5.072 3.944-0.483 0.754-0.785 2.32-0.785 3.132 0 0.232 0 0.464 0 0.696v0.464c0 1.566 1.087 2.842 2.476 2.842h19.080c1.328 0 2.476-1.276 2.476-2.842v0.986-1.392c0-0.232 0-0.522 0-0.696-0.121-0.87-0.362-2.378-0.906-3.19zM26.639 58.244c0 3.654 2.355 8.989 6.702 8.989 4.287 0 6.702-5.336 6.702-8.989s-3.019-6.612-6.702-6.612c-3.683 0.058-6.702 3.016-6.702 6.612z"></path>
<path fill="#009fe3" d="M75.378 73.809c-1.268-1.972-2.838-3.19-5.072-3.944 0 0-1.691-0.87-6.098-0.87s-6.098 0.87-6.098 0.87c-2.234 0.696-3.804 1.972-5.072 3.944-0.483 0.754-0.785 2.32-0.785 3.132 0 0.232 0 0.464 0 0.696v0.464c0 1.566 1.087 2.842 2.476 2.842h19.080c1.328 0 2.476-1.276 2.476-2.842v0.986-1.392c0-0.232 0-0.522 0-0.696-0.121-0.87-0.362-2.378-0.906-3.19zM57.506 58.266c0 3.654 2.355 8.989 6.702 8.989 4.287 0 6.702-5.336 6.702-8.989s-3.019-6.612-6.702-6.612c-3.683 0.058-6.702 3.016-6.702 6.612z"></path>
<path fill="#009fe3" d="M40.393 51.061l0.247 0.148 3.755-6.82-0.247-0.148-3.755 6.82z"></path>
<path fill="#009fe3" d="M57.218 51.239l-0.247 0.148-3.755-6.82 0.247-0.148 3.755 6.82z"></path>
</svg>
