<?xml version="1.0" encoding="utf-8"?>
<svg version="1.1" xmlns="http://www.w3.org/2000/svg" xmlns:xlink="http://www.w3.org/1999/xlink" x="0px" y="0px" viewBox="6 6 36 36" enable-background="new 6 6 36 36" xml:space="preserve">
	<rect x="6" y="6" style="fill:#50759B;" width="36" height="36"></rect>
	<rect x="12" y="19" fill="#FFFFFF" width="5" height="17"></rect>
	<path fill="#FFFFFF" d="M14.485,17h-0.028C12.965,17,12,15.888,12,14.499C12,13.08,12.995,12,14.514,12
		c1.521,0,2.458,1.08,2.486,2.499C17,15.887,16.035,17,14.485,17z"></path>
	<path fill="#FFFFFF" d="M36,36h-5v-9.099c0-2.198-1.225-3.698-3.192-3.698c-1.501,0-2.313,1.012-2.707,1.99
		C24.957,25.543,25,26.511,25,27v9h-5V19h5v2.616C25.721,20.5,26.85,19,29.738,19c3.578,0,6.261,2.25,6.261,7.274L36,36L36,36z"></path>
</svg>
