<?xml version="1.0" encoding="utf-8"?>
<!-- Generator: Adobe Illustrator 20.1.0, SVG Export Plug-In . SVG Version: 6.00 Build 0)  -->
<svg version="1.1" id="lock_1_" opacity="0.3" xmlns="http://www.w3.org/2000/svg" xmlns:xlink="http://www.w3.org/1999/xlink"
	 x="0px" y="0px" viewBox="0 0 60.9 84.9" style="enable-background:new 0 0 60.9 84.9;" xml:space="preserve">
<style type="text/css">
	.st0{fill-rule:evenodd;clip-rule:evenodd;fill:#919AA3;}
</style>
<path class="st0" d="M55.7,29.2h-4.3v-7.7h0c0-0.1,0-0.3,0-0.4c0-11.6-9.4-21-21-21c-11.6,0-21,9.4-21,21c0,0.1,0,0.3,0,0.4h0v7.7
	H5.1c-2.8,0-5.1,2.3-5.1,5.1v45.4c0,2.8,2.3,5.1,5.1,5.1h50.6c2.8,0,5.1-2.3,5.1-5.1V34.3C60.9,31.5,58.6,29.2,55.7,29.2z
	 M32.6,58.7v6.9c0,1.2-1,2.1-2.1,2.1s-2.1-1-2.1-2.1v-6.9c-2-0.8-3.4-2.8-3.4-5.1c0-3.1,2.5-5.6,5.6-5.6c3.1,0,5.6,2.5,5.6,5.6
	C36,55.9,34.6,57.9,32.6,58.7z M43.7,21.4v7.7H17.1v-7.7h0c0-0.1,0-0.3,0-0.4c0-7.3,5.9-13.3,13.3-13.3c7.3,0,13.3,6,13.3,13.3
	C43.7,21.2,43.7,21.3,43.7,21.4L43.7,21.4z"/>
</svg>
