<svg xmlns="http://www.w3.org/2000/svg" width="28" height="28" viewBox="0 0 28 28">
    <defs>
        <linearGradient id="a" x1="50%" x2="50%" y1="0%" y2="100%">
            <stop offset="0%" stop-color="#FBD249"/>
            <stop offset="100%" stop-color="#F6A623"/>
        </linearGradient>
    </defs>
    <path fill="url(#a)" fill-rule="evenodd" d="M21.044 12.036c0 1.908-3.243 3.52-7.081 3.52-3.84 0-7.082-1.612-7.082-3.52v-1.54c1.213 1.456 3.894 2.446 7.082 2.446 3.187 0 5.868-.99 7.08-2.446v1.54zm0 3.523c0 1.908-3.243 3.52-7.081 3.52-3.84 0-7.082-1.612-7.082-3.52v-1.753c1.213 1.455 3.894 2.445 7.082 2.445 3.187 0 5.868-.99 7.08-2.445v1.753zm0 3.451c0 1.908-3.243 3.52-7.081 3.52-3.84 0-7.082-1.612-7.082-3.52v-1.682c1.213 1.456 3.894 2.446 7.082 2.446 3.187 0 5.868-.99 7.08-2.446v1.682zM13.963 5.4c3.773 0 6.963 1.559 7.07 3.424-.107 1.864-3.297 3.423-7.07 3.423S6.999 10.69 6.892 8.824C6.999 6.959 10.19 5.4 13.962 5.4zm0-5.4C6.25 0 0 6.253 0 13.965c0 7.714 6.251 13.966 13.963 13.966 7.711 0 13.963-6.252 13.963-13.966C27.926 6.253 21.674 0 13.963 0z"/>
</svg>
