<?xml version="1.0" encoding="utf-8"?>
<!-- Generator: Adobe Illustrator 20.1.0, SVG Export Plug-In . SVG Version: 6.00 Build 0)  -->
<svg version="1.1" id="Calque_8" xmlns="http://www.w3.org/2000/svg" xmlns:xlink="http://www.w3.org/1999/xlink" x="0px" y="0px"
	 viewBox="0 0 276 131" style="enable-background:new 0 0 276 131;" xml:space="preserve">
<style type="text/css">
	.st0{fill:#009FE3;}
	.st1{fill:url(#SVGID_1_);}
</style>
<path class="st0" d="M0,61h86V0H0V61z M1,1h84v59H1V1z M28,15.9h48v-3H28V15.9z M28,22.3h48v-3H28V22.3z M28,47.9h48v-3H28V47.9z
	 M14.6,9.8c-2.7,0-4.9,2.2-4.9,4.9c0,2.7,2.2,4.9,4.9,4.9s4.9-2.2,4.9-4.9C19.5,12,17.3,9.8,14.6,9.8z M28,41.5h48v-3H28V41.5z
	 M28,35.1h48v-3H28V35.1z M28,28.7h48v-3H28V28.7z M123,35.1h48v-3h-48V35.1z M123,41.5h48v-3h-48V41.5z M109.6,9.8
	c-2.7,0-4.9,2.2-4.9,4.9c0,2.7,2.2,4.9,4.9,4.9s4.9-2.2,4.9-4.9C114.5,12,112.3,9.8,109.6,9.8z M123,47.9h48v-3h-48V47.9z M123,28.7
	h48v-3h-48V28.7z M123,15.9h48v-3h-48V15.9z M95,61h86V0H95V61z M96,1h84v59H96V1z M123,22.3h48v-3h-48V22.3z M204.6,19.6
	c2.7,0,4.9-2.2,4.9-4.9c0-2.7-2.2-4.9-4.9-4.9s-4.9,2.2-4.9,4.9C199.7,17.4,201.9,19.6,204.6,19.6z M266,44.9h-48v3h48V44.9z
	 M266,38.5h-48v3h48V38.5z M190,0v61h86V0H190z M275,60h-84V1h84V60z M266,12.9h-48v3h48V12.9z M266,19.3h-48v3h48V19.3z M266,32.1
	h-48v3h48V32.1z M266,25.7h-48v3h48V25.7z"/>
<linearGradient id="SVGID_1_" gradientUnits="userSpaceOnUse" x1="138" y1="70" x2="138" y2="131">
	<stop  offset="0" style="stop-color:#009FE3"/>
	<stop  offset="0.2104" style="stop-color:#4ABBEB"/>
	<stop  offset="0.4998" style="stop-color:#ABDFF6"/>
	<stop  offset="0.7022" style="stop-color:#E7F6FC"/>
	<stop  offset="0.798" style="stop-color:#FFFFFF"/>
</linearGradient>
<path class="st1" d="M28,117.9h48v-3H28V117.9z M14.6,79.8c-2.7,0-4.9,2.2-4.9,4.9c0,2.7,2.2,4.9,4.9,4.9s4.9-2.2,4.9-4.9
	C19.5,82,17.3,79.8,14.6,79.8z M0,131h86V70H0V131z M1,71h84v59H1V71z M28,85.9h48v-3H28V85.9z M28,105.1h48v-3H28V105.1z M28,92.3
	h48v-3H28V92.3z M28,111.5h48v-3H28V111.5z M28,98.7h48v-3H28V98.7z M123,111.5h48v-3h-48V111.5z M123,117.9h48v-3h-48V117.9z
	 M109.6,79.8c-2.7,0-4.9,2.2-4.9,4.9c0,2.7,2.2,4.9,4.9,4.9s4.9-2.2,4.9-4.9C114.5,82,112.3,79.8,109.6,79.8z M95,131h86V70H95V131z
	 M96,71h84v59H96V71z M123,92.3h48v-3h-48V92.3z M123,105.1h48v-3h-48V105.1z M123,85.9h48v-3h-48V85.9z M123,98.7h48v-3h-48V98.7z
	 M204.6,89.6c2.7,0,4.9-2.2,4.9-4.9c0-2.7-2.2-4.9-4.9-4.9s-4.9,2.2-4.9,4.9C199.7,87.4,201.9,89.6,204.6,89.6z M266,108.5h-48v3h48
	V108.5z M190,70v61h86V70H190z M275,130h-84V71h84V130z M266,114.9h-48v3h48V114.9z M266,89.3h-48v3h48V89.3z M266,82.9h-48v3h48
	V82.9z M266,95.7h-48v3h48V95.7z M266,102.1h-48v3h48V102.1z"/>
</svg>
