<?xml version="1.0" encoding="utf-8"?>
<svg version="1.1" id="Calque_1" xmlns="http://www.w3.org/2000/svg" xmlns:xlink="http://www.w3.org/1999/xlink" x="0px" y="0px"
	 viewBox="0 0 230 120" style="enable-background:new 0 0 230 120;" xml:space="preserve">
<style type="text/css">
	.st0{fill-rule:evenodd;clip-rule:evenodd;fill:#fda000;}
</style>
<path class="st0" d="M125.9,80.6c-3.4-5.4-7.6-8.9-13.6-10.9c0,0-4.5-2.3-16.3-2.3c-11.8,0-16.3,2.3-16.3,2.3
	c-6,2-10.2,5.5-13.6,10.9c-1.4,2.1-2.1,6.4-2.2,8.7c0,0.6,0,1.3,0,2v1.2c0,4.4,2.9,7.9,6.6,7.9h51c3.6,0,6.6-3.5,6.6-7.9v-1.2
	c0-0.7,0-1.4,0-2C128,87,127.2,82.7,125.9,80.6z M96,62.3c11.5,0,18-14.9,18-25c0-10.1-8-18.3-18-18.3c-9.9,0-18,8.2-18,18.3
	C78,47.4,84.2,62.3,96,62.3z M144.1,9.6c-12.1,0-21.9,8.1-21.9,18c0,6.1,3.7,11.6,9.5,14.8L127,55.9l13.7-10.4
	c1.1,0.1,2.3,0.2,3.4,0.2c12.1,0,21.9-8.1,21.9-18C166.1,17.6,156.2,9.6,144.1,9.6z M139.1,29.4c-0.5,0.4-1.1,0.7-2,0.7
	c-0.9,0-1.5-0.2-2-0.6c-0.5-0.4-0.7-1-0.7-1.8c0-0.8,0.2-1.4,0.7-1.8c0.5-0.4,1.2-0.7,2.1-0.7c0.9,0,1.5,0.2,2,0.7
	c0.5,0.4,0.7,1,0.7,1.8C139.8,28.4,139.5,29,139.1,29.4z M146.8,29.4c-0.5,0.4-1.1,0.7-2,0.7c-0.9,0-1.5-0.2-2-0.6
	c-0.5-0.4-0.7-1-0.7-1.8c0-0.8,0.2-1.4,0.7-1.8c0.5-0.4,1.2-0.7,2.1-0.7c0.9,0,1.5,0.2,2,0.7c0.5,0.4,0.7,1,0.7,1.8
	C147.5,28.4,147.3,29,146.8,29.4z M154.6,29.4c-0.5,0.4-1.1,0.7-2,0.7c-0.9,0-1.5-0.2-2-0.6c-0.5-0.4-0.7-1-0.7-1.8
	c0-0.8,0.2-1.4,0.7-1.8c0.5-0.4,1.2-0.7,2.1-0.7c0.9,0,1.5,0.2,2,0.7c0.5,0.4,0.7,1,0.7,1.8C155.3,28.4,155.1,29,154.6,29.4z"/>
</svg>
