<?xml version="1.0" encoding="utf-8"?>
<svg version="1.1" xmlns="http://www.w3.org/2000/svg" xmlns:xlink="http://www.w3.org/1999/xlink" x="0px" y="0px"
	 viewBox="0 0 113.4 113.4" style="enable-background:new 0 0 113.4 113.4;" xml:space="preserve">
<g id="technologies">
	<path class="st0" d="M69.7,96.5c11.1-4.3,18.9-15.1,18.9-27.6c0-6.7-2.3-12.9-6.1-17.9c0.8-1.7,1.3-3.7,1.3-5.7
		c0-7.3-6-13.2-13.3-13.2c-0.1,0-0.2,0-0.2,0l7.1-12l-2.5-1.4L80,9.8l-7.7-4.4l-5.2,8.9l-2.6-1.5L40.9,52.5L35,49.2l-5.3,9.1
		l24.2,13.9l5.3-9.1l-5.4-3.1l5-8.4c2.2,4.2,6.7,7.1,11.8,7.1c1.1,0,2.1-0.1,3.1-0.4c2.3,3,3.6,6.8,3.6,10.8
		c0,10.1-8.2,18.3-18.4,18.3c-3.2,0-6.2-0.8-8.8-2.3h5.3l0-7H19.4l0,7h14.3c3.4,5.2,8.3,9.2,14.1,11.5h-27l0,11.5l73.1,0l0-11.5
		L69.7,96.5z M70.6,52.3c-3.9,0-7-3.1-7-7c0-3.8,3.1-7,7-7c3.9,0,7,3.1,7,7C77.6,49.1,74.5,52.3,70.6,52.3z"/>
</g>
</svg>
