<?xml version="1.0" encoding="utf-8"?>
<svg version="1.1" xmlns="http://www.w3.org/2000/svg" xmlns:xlink="http://www.w3.org/1999/xlink" x="0px" y="0px"
	 viewBox="0 0 113.4 113.4" style="enable-background:new 0 0 113.4 113.4;" xml:space="preserve">
<g id="transverse">
	<path class="st0" d="M31.6,81.8c-13.8-13.8-13.8-36.4,0-50.2l7.4,7.4V16.8H16.8l8.6,8.6C8,42.6,8,70.8,25.3,88.1
		C36.3,99,51.5,103,65.6,100.1V91C53.8,94.1,40.8,91,31.6,81.8z M88,25.4c-10.9-10.9-26.1-15-40.2-12.1v9.1c11.8-3.1,24.8,0,34,9.2
		c13.8,13.8,13.8,36.4,0,50.2l-7.4-7.4v22.2h22.2l-8.6-8.6C105.4,70.8,105.4,42.6,88,25.4z"/>
</g>
</svg>
