<?xml version="1.0" encoding="utf-8"?>
<svg version="1.1" xmlns="http://www.w3.org/2000/svg" xmlns:xlink="http://www.w3.org/1999/xlink" x="0px" y="0px"
	 viewBox="0 0 98 98" style="enable-background:new 0 0 98 98;" xml:space="preserve">
<style type="text/css">
	.st0{fill:#009FE3;}
</style>
<g id="q_x2F_a">
	<path class="st0" d="M78.9,43.7c0-8.7-8.6-15.8-19.2-15.8c-2.9,0-5.6,0.5-8,1.4c-3.1-1.3-6.5-2-10.2-2c-12.4,0-22.4,8.3-22.4,18.4
		c0,6.3,3.8,11.8,9.7,15.2L24,74.6l14-10.7c1.1,0.1,2.3,0.2,3.5,0.2c5.9,0,11.2-1.9,15.2-4.9c1,0.1,2,0.2,3,0.2c1,0,2-0.1,3-0.2
		l12,9.2l-4.1-11.8C75.7,53.8,78.9,49,78.9,43.7z M36.3,47.6c-0.5,0.4-1.2,0.7-2,0.7c-0.9,0-1.6-0.2-2.1-0.7
		c-0.5-0.4-0.8-1.1-0.8-1.9c0-0.8,0.2-1.4,0.7-1.9c0.5-0.4,1.2-0.7,2.1-0.7c0.9,0,1.6,0.2,2,0.7c0.5,0.4,0.7,1.1,0.7,1.9
		C37,46.5,36.8,47.1,36.3,47.6z M44.2,47.6c-0.5,0.4-1.2,0.7-2,0.7c-0.9,0-1.6-0.2-2.1-0.7c-0.5-0.4-0.8-1.1-0.8-1.9
		c0-0.8,0.2-1.4,0.7-1.9c0.5-0.4,1.2-0.7,2.1-0.7c0.9,0,1.6,0.2,2,0.7c0.5,0.4,0.7,1.1,0.7,1.9C45,46.5,44.7,47.1,44.2,47.6z
		 M52.2,47.6c-0.5,0.4-1.2,0.7-2,0.7c-0.9,0-1.6-0.2-2.1-0.7c-0.5-0.4-0.8-1.1-0.8-1.9c0-0.8,0.2-1.4,0.7-1.9
		c0.5-0.4,1.2-0.7,2.1-0.7c0.9,0,1.6,0.2,2,0.7c0.5,0.4,0.7,1.1,0.7,1.9C52.9,46.5,52.7,47.1,52.2,47.6z M68.4,55.5l2.7,7.9l-8-6.3
		c-1.1,0.2-2.3,0.3-3.5,0.3c-0.2,0-0.4,0-0.7,0c3.2-3.2,5.1-7.2,5.1-11.7c0-6.5-4.1-12.2-10.3-15.5c1.8-0.5,3.8-0.8,5.8-0.8
		c9.7,0,17.5,6.3,17.5,14C77,48.5,73.5,53,68.4,55.5z"/>
</g>
<g id="circle">
	<path class="st0" d="M49,0C21.9,0,0,21.9,0,49c0,27.1,21.9,49,49,49c27.1,0,49-21.9,49-49C98,21.9,76.1,0,49,0z M49,96
		C23,96,2,75,2,49C2,23,23,2,49,2c26,0,47,21,47,47C96,75,75,96,49,96z"/>
</g>
</svg>
