<?xml version="1.0" encoding="utf-8"?>
<svg version="1.1" xmlns="http://www.w3.org/2000/svg" xmlns:xlink="http://www.w3.org/1999/xlink" x="0px" y="0px"
	 viewBox="0 0 98 98" style="enable-background:new 0 0 98 98;" xml:space="preserve">
<style type="text/css">
	.st0{fill:#009FE3;}
</style>
<g id="survey">
	<path class="st0" d="M51.6,22.5c-10.3,0-18.6,8.3-18.6,18.6c0,5.3,2.2,10,5.8,13.4L28.3,70.3c-1,1.6-0.6,3.7,1,4.7
		c1.6,1,3.7,0.6,4.7-1l10.5-15.8c2.2,0.9,4.6,1.4,7.1,1.4c10.3,0,18.6-8.3,18.6-18.6C70.2,30.8,61.9,22.5,51.6,22.5z M51.7,53.9
		c-2.5,0-4.8-0.7-6.8-1.9c-0.1-0.1-0.1-0.1-0.2-0.2c-0.1-0.1-0.2-0.1-0.3-0.2c-3.4-2.3-5.6-6.2-5.6-10.6c0-7.1,5.8-12.9,12.9-12.9
		c7.1,0,12.9,5.8,12.9,12.9C64.5,48.1,58.8,53.9,51.7,53.9z"/>
</g>
</svg>
