<?xml version="1.0" encoding="utf-8"?>
<svg version="1.1" xmlns="http://www.w3.org/2000/svg" xmlns:xlink="http://www.w3.org/1999/xlink" x="0px" y="0px"
	 viewBox="0 0 98 98" style="enable-background:new 0 0 98 98;" xml:space="preserve">
<style type="text/css">
	.st0{fill:#009FE3;}
</style>
<g id="doc">
	<path class="st0" d="M31.4,25.4c-0.7,0-1.3,0.6-1.3,1.3v47.1c0,0.7,0.6,1.3,1.3,1.3h32.5c0.7,0,1.3-0.6,1.3-1.3V32.5l-7.1-7.1H31.4
		z M63.9,34.5c0,0.5-0.4,0.9-0.9,0.9h-6.1c-0.5,0-0.9-0.4-0.9-0.9v-6.1c0-0.5,0.4-0.9,0.9-0.9c0.5,0,0.9,0.4,0.9,0.9v5.2H63
		C63.5,33.6,63.9,34,63.9,34.5z M59.7,22.8H34.1c-0.7,0-1.3,0.6-1.3,1.3H59l7.6,7.6v40.8c0.7,0,1.3-0.6,1.3-1.3V30.8L59.7,22.8z"/>
</g>
<g id="circle">
	<path class="st0" d="M49,0C21.9,0,0,21.9,0,49c0,27.1,21.9,49,49,49c27.1,0,49-21.9,49-49C98,21.9,76.1,0,49,0z M49,96
		C23,96,2,75,2,49C2,23,23,2,49,2c26,0,47,21,47,47C96,75,75,96,49,96z"/>
</g>
</svg>
