<?xml version="1.0" encoding="utf-8"?>
<svg version="1.1" xmlns="http://www.w3.org/2000/svg" xmlns:xlink="http://www.w3.org/1999/xlink" x="0px" y="0px"
	 viewBox="0 0 98 98" style="enable-background:new 0 0 98 98;" xml:space="preserve">
<style type="text/css">
	.st0{fill:#009FE3;}
</style>
<g id="call">
	<path class="st0" d="M62.2,19.5H35.8c-2.1,0-3.8,1.7-3.8,3.8v50.5c0,2.1,1.7,3.8,3.8,3.8h26.3c2.1,0,3.8-1.7,3.8-3.8V23.2
		C65.9,21.2,64.2,19.5,62.2,19.5z M49,74.7c-1.6,0-3-1.3-3-3c0-1.6,1.3-3,3-3s3,1.3,3,3C52,73.4,50.6,74.7,49,74.7z M63,65H35.3
		V25.7H63V65z"/>
</g>
<g id="circle">
	<path class="st0" d="M49,0C21.9,0,0,21.9,0,49c0,27.1,21.9,49,49,49c27.1,0,49-21.9,49-49C98,21.9,76.1,0,49,0z M49,96
		C23,96,2,75,2,49C2,23,23,2,49,2c26,0,47,21,47,47C96,75,75,96,49,96z"/>
</g>
</svg>
