<svg xmlns="http://www.w3.org/2000/svg" width="35" height="25" viewBox="0 0 35 25">
    <g fill="none" fill-rule="evenodd">
        <path fill="#4C6172" d="M19.306 8.258c3.037 0 5.509 2.5 5.509 5.572 0 3.07-2.472 5.57-5.51 5.57-3.036 0-5.509-2.5-5.509-5.57 0-3.072 2.463-5.572 5.51-5.572zm0-2.809c-4.575 0-8.287 3.746-8.287 8.38 0 4.626 3.712 8.38 8.287 8.38 4.574 0 8.287-3.754 8.287-8.38-.01-4.625-3.713-8.38-8.287-8.38z"/>
        <path fill="#009FE3" d="M7.731 3.904C7.731 1.751 6 0 3.861 0 1.731 0 0 1.75 0 3.904S1.731 7.81 3.861 7.81c2.139.01 3.87-1.75 3.87-3.905zm-6.055 0c0-1.226.981-2.219 2.194-2.219s2.195.993 2.195 2.22c0 1.217-.982 2.219-2.195 2.219-1.213 0-2.194-.993-2.194-2.22zm5.74 13.259c-2.129 0-3.86 1.75-3.86 3.904s1.731 3.905 3.86 3.905c2.13 0 3.862-1.751 3.862-3.905 0-2.153-1.732-3.904-3.861-3.904zm0 6.124c-1.212 0-2.194-1.002-2.194-2.22 0-1.226.982-2.219 2.195-2.219 1.213 0 2.194.993 2.194 2.22-.01 1.217-.99 2.219-2.194 2.219zm23.686-6.124c-2.13 0-3.861 1.75-3.861 3.904s1.731 3.905 3.86 3.905c2.13 0 3.862-1.751 3.862-3.905 0-2.153-1.732-3.904-3.861-3.904zm0 6.124c-1.213 0-2.195-.993-2.195-2.22 0-1.226.982-2.219 2.195-2.219 1.213 0 2.194.993 2.194 2.22 0 1.226-.99 2.219-2.194 2.219zM30.713 6.47c0-2.154-1.732-3.904-3.861-3.904-2.13 0-3.861 1.75-3.861 3.904s1.731 3.905 3.86 3.905c2.13 0 3.862-1.751 3.862-3.905zm-3.861 2.22c-1.213 0-2.195-.993-2.195-2.22 0-1.217.982-2.22 2.195-2.22 1.213 0 2.194.993 2.194 2.22-.009 1.227-.99 2.22-2.194 2.22z"/>
    </g>
</svg>
