<?xml version="1.0" encoding="utf-8"?>
<svg version="1.1" id="Calque_1" xmlns="http://www.w3.org/2000/svg" xmlns:xlink="http://www.w3.org/1999/xlink" x="0px" y="0px"
	 viewBox="0 0 377.6 266.7" style="enable-background:new 0 0 377.6 266.7;" xml:space="preserve" height="378" width="378">
<style type="text/css">
	 .st0{fill:#009FE3;}
	.st1{fill:#4C6172;}
 </style>
<path class="st1" d="M208.5,88.2c32.8,0,59.5,26.7,59.5,59.5c0,32.8-26.7,59.5-59.5,59.5c-32.8,0-59.5-26.7-59.5-59.5
	C149,114.9,175.6,88.2,208.5,88.2 M208.5,58.2c-49.4,0-89.5,40-89.5,89.5c0,49.4,40.1,89.5,89.5,89.5c49.4,0,89.5-40.1,89.5-89.5
	C297.9,98.3,257.9,58.2,208.5,58.2L208.5,58.2z"/>
<path class="st0" d="M83.5,41.7C83.5,18.7,64.8,0,41.7,0C18.7,0,0,18.7,0,41.7c0,23,18.7,41.7,41.7,41.7
	C64.8,83.5,83.5,64.7,83.5,41.7z M18.1,41.7c0-13.1,10.6-23.7,23.7-23.7c13.1,0,23.7,10.6,23.7,23.7c0,13-10.6,23.7-23.7,23.7
	C28.7,65.4,18.1,54.8,18.1,41.7z M80.1,183.3c-23,0-41.7,18.7-41.7,41.7c0,23,18.7,41.7,41.7,41.7c23,0,41.7-18.7,41.7-41.7
	C121.8,202,103.1,183.3,80.1,183.3z M80.1,248.7C67,248.7,56.4,238,56.4,225c0-13.1,10.6-23.7,23.7-23.7c13.1,0,23.7,10.6,23.7,23.7
	C103.7,238,93.1,248.7,80.1,248.7z M335.9,183.3c-23,0-41.7,18.7-41.7,41.7c0,23,18.7,41.7,41.7,41.7c23,0,41.7-18.7,41.7-41.7
	C377.6,202,358.9,183.3,335.9,183.3z M335.9,248.7c-13.1,0-23.7-10.6-23.7-23.7c0-13.1,10.6-23.7,23.7-23.7
	c13.1,0,23.7,10.6,23.7,23.7C359.6,238.1,348.9,248.7,335.9,248.7z M331.7,69.1c0-23-18.7-41.7-41.7-41.7c-23,0-41.7,18.7-41.7,41.7
	c0,23,18.7,41.7,41.7,41.7C313,110.8,331.7,92.1,331.7,69.1z M290,92.8c-13.1,0-23.7-10.6-23.7-23.7c0-13,10.6-23.7,23.7-23.7
	c13.1,0,23.7,10.6,23.7,23.7C313.6,82.2,303,92.8,290,92.8z"/>
</svg>
