<svg xmlns="http://www.w3.org/2000/svg" width="158" height="22" viewBox="0 0 158 22">
    <g fill="none" fill-rule="evenodd">
        <g fill="#02A0E4">
            <path d="M30.126 5.137c-.491 0-.842.274-1.053.684l-3.862 8.553-3.863-8.553c-.07-.205-.28-.41-.421-.547a1.153 1.153 0 0 0-.632-.206c-.562 0-.913.274-1.053.89l-3.23 11.426h2.176l2.388-8.552 3.511 7.868c.21.547.632.821 1.124.821.28 0 .491-.068.632-.205a.996.996 0 0 0 .421-.616l3.511-7.868 2.388 8.552h2.177L31.18 5.958c-.21-.48-.562-.821-1.054-.821zm7.725 12.316h2.177V5.343h-2.177v12.11zM55.056 14.1l-8.848-8.484c-.14-.137-.281-.274-.492-.342-.14-.069-.28-.069-.491-.069-.351 0-.632.137-.843.342-.21.206-.28.548-.28.958v11.016h2.106V8.626l8.778 8.553c.28.274.632.479.983.479s.562-.137.773-.342c.21-.205.28-.548.28-.958V5.205h-2.106V14.1h.14zm18.96-5.268c-.28-.753-.701-1.369-1.263-1.848a5.625 5.625 0 0 0-1.896-1.231 7.112 7.112 0 0 0-2.458-.41h-7.233v12.11h7.233c.913 0 1.685-.137 2.458-.48.772-.341 1.404-.752 1.896-1.3a5.379 5.379 0 0 0 1.264-1.984c.28-.752.421-1.573.421-2.463 0-.82-.14-1.642-.421-2.394zm-2.036 4.105c-.21.479-.491.89-.842 1.231a3.994 3.994 0 0 1-1.264.821c-.492.206-.984.274-1.545.274h-5.057V7.395h5.057c.561 0 1.053.068 1.545.273.491.206.913.48 1.264.821.35.343.632.753.842 1.232.211.479.281 1.026.281 1.574 0 .616-.07 1.163-.28 1.642zM13.624 11.637c0-1.642-.492-3.08-1.405-4.174C10.955 5.89 9.2 5.068 7.093 5.068c-2.037 0-3.722.753-4.986 2.327C1.124 8.626.632 9.995.632 11.5c0 1.642.562 3.147 1.756 4.379 1.123 1.3 2.738 1.984 4.775 1.984.913 0 1.756-.137 2.458-.41a7.056 7.056 0 0 0 1.966-1.164 7.988 7.988 0 0 0 1.545-2.052l.14-.205h-2.457c-.281.342-.492.615-.773.82-.351.343-.843.548-1.334.753a4.834 4.834 0 0 1-1.686.274c-1.193 0-2.106-.41-2.949-1.163-.702-.753-1.124-1.642-1.194-2.805h10.674l.07-.274zM3.16 9.995c.281-.821.702-1.437 1.194-1.848.772-.684 1.685-1.026 2.809-1.026.632 0 1.264.137 1.896.41.562.274 1.053.616 1.404 1.095.281.342.562.821.703 1.369H3.16zm85.042.342h-7.865V5.342H78.16v12.18h2.177v-5.27h7.865v5.27h2.177V5.341h-2.177v4.995zm17.416 1.779c0 .616-.07 1.163-.21 1.573a2.43 2.43 0 0 1-.773 1.095c-.351.274-.843.48-1.405.616-.561.137-1.334.205-2.177.205-.842 0-1.545-.068-2.177-.205-.561-.137-1.053-.342-1.404-.616-.351-.273-.632-.616-.773-1.095-.14-.41-.21-.957-.21-1.573V5.342h-2.247v6.774c0 .958.14 1.779.35 2.463.282.684.633 1.3 1.195 1.71.561.48 1.264.822 2.106 1.027.843.205 1.896.342 3.09.342s2.247-.137 3.09-.342c.843-.205 1.545-.548 2.107-1.027.562-.478.913-1.026 1.194-1.71.28-.684.35-1.505.35-2.463V5.342h-2.106v6.774zm18.89-.137a2.476 2.476 0 0 0-1.404-.958c.21-.068.421-.137.632-.342a2.11 2.11 0 0 0 .562-.547c.14-.206.28-.48.35-.753.071-.274.141-.616.141-1.026 0-.48-.07-.958-.28-1.369-.211-.41-.492-.752-.843-.958a3.601 3.601 0 0 0-1.264-.615 6.298 6.298 0 0 0-1.686-.206h-9.129v12.11h9.34c.632 0 1.124-.068 1.685-.273.492-.205.913-.41 1.264-.753.352-.342.632-.684.773-1.163.21-.479.28-.958.28-1.505.141-.547-.07-1.163-.42-1.642zm-10.674-4.584h6.11c.421 0 .772 0 1.123.068.352 0 .632.137.843.205.21.137.421.274.562.48.14.205.21.478.21.752 0 .547-.14.89-.42 1.163-.282.205-.773.342-1.405.342h-6.953v-3.01h-.07zm8.778 7.116c-.14.205-.35.342-.561.478-.211.137-.492.206-.843.274-.351.069-.702.069-1.054.069h-6.32v-3.148h7.093c.632 0 1.053.137 1.404.41.352.274.492.685.492 1.164 0 .274-.07.547-.21.753z"/>
        </g>
        <path fill="#4B6071" d="M143.926 7.166c2.666 0 4.774 2.2 4.774 4.84 0 2.703-2.17 4.84-4.774 4.84-2.666 0-4.774-2.2-4.774-4.84 0-2.64 2.17-4.84 4.774-4.84zm0-2.389c-3.968 0-7.192 3.269-7.192 7.292 0 4.022 3.224 7.291 7.192 7.291s7.192-3.269 7.192-7.291a7.169 7.169 0 0 0-7.192-7.292z"/>
        <path fill="#02A0E4" d="M133.882 3.394c0-1.885-1.488-3.394-3.348-3.394-1.86 0-3.348 1.509-3.348 3.394 0 1.886 1.488 3.395 3.348 3.395 1.86 0 3.348-1.509 3.348-3.395zm-5.27 0c0-1.068.868-1.948 1.922-1.948 1.054 0 1.922.88 1.922 1.948 0 1.069-.868 1.949-1.922 1.949-1.054 0-1.922-.88-1.922-1.949zm5.022 11.566c-1.86 0-3.348 1.509-3.348 3.394 0 1.886 1.488 3.395 3.348 3.395 1.86 0 3.348-1.509 3.348-3.395 0-1.885-1.488-3.394-3.348-3.394zm0 5.343c-1.054 0-1.922-.88-1.922-1.949 0-1.068.868-1.948 1.922-1.948 1.054 0 1.922.88 1.922 1.948 0 1.069-.868 1.949-1.922 1.949zm20.584-5.343c-1.86 0-3.348 1.509-3.348 3.394 0 1.886 1.488 3.395 3.348 3.395 1.86 0 3.348-1.509 3.348-3.395 0-1.885-1.488-3.394-3.348-3.394zm0 5.343c-1.054 0-1.922-.88-1.922-1.949 0-1.068.868-1.948 1.922-1.948 1.054 0 1.922.88 1.922 1.948 0 1.069-.868 1.949-1.922 1.949zm-.372-14.646c0-1.886-1.488-3.394-3.348-3.394-1.86 0-3.348 1.508-3.348 3.394 0 1.886 1.488 3.394 3.348 3.394 1.86 0 3.348-1.508 3.348-3.394zm-3.348 1.886c-1.054 0-1.922-.88-1.922-1.949 0-1.068.868-1.948 1.922-1.948 1.054 0 1.922.943 1.922 2.011 0 1.069-.868 1.886-1.922 1.886z"/>
    </g>
</svg>
