<?xml version="1.0" encoding="utf-8"?>
<!-- Generator: Adobe Illustrator 20.1.0, SVG Export Plug-In . SVG Version: 6.00 Build 0)  -->
<svg version="1.1" xmlns="http://www.w3.org/2000/svg" xmlns:xlink="http://www.w3.org/1999/xlink" x="0px" y="0px"
	 viewBox="0 0 177.1 85.7" style="enable-background:new 0 0 177.1 85.7;" xml:space="preserve">
<style type="text/css">
	.st0{fill:#009FE3;}
	.st1{fill:#4C6172;}
</style>
<g id="Calque_1">
	<path class="st0" d="M41.9,67.1c-0.7,0-1.2,0.4-1.5,1l-5.5,12.5l-5.5-12.5c-0.1-0.3-0.4-0.6-0.6-0.8c-0.3-0.2-0.6-0.3-0.9-0.3
		c-0.8,0-1.3,0.4-1.5,1.3L21.8,85h3.1l3.4-12.5l5,11.5c0.3,0.8,0.9,1.2,1.6,1.2c0.4,0,0.7-0.1,0.9-0.3c0.3-0.2,0.5-0.5,0.6-0.9
		l5-11.5L44.8,85h3.1l-4.5-16.7C43.1,67.5,42.6,67.1,41.9,67.1z M52.9,85H56V67.3h-3.1V85z M77.4,80.1L64.8,67.7
		c-0.2-0.2-0.4-0.4-0.7-0.5c-0.2-0.1-0.4-0.1-0.7-0.1c-0.5,0-0.9,0.2-1.2,0.5c-0.3,0.3-0.4,0.8-0.4,1.4V85h3V72l12.5,12.5
		c0.4,0.4,0.9,0.7,1.4,0.7c0.5,0,0.8-0.2,1.1-0.5c0.3-0.3,0.4-0.8,0.4-1.4V67.1h-3V80.1z M104.4,72.4c-0.4-1.1-1-2-1.8-2.7
		c-0.8-0.8-1.7-1.4-2.7-1.8c-1.1-0.4-2.2-0.6-3.5-0.6H86.1V85h10.3c1.3,0,2.4-0.2,3.5-0.7c1.1-0.5,2-1.1,2.7-1.9
		c0.8-0.8,1.4-1.8,1.8-2.9c0.4-1.1,0.6-2.3,0.6-3.6C105,74.7,104.8,73.5,104.4,72.4z M101.5,78.4c-0.3,0.7-0.7,1.3-1.2,1.8
		c-0.5,0.5-1.1,0.9-1.8,1.2c-0.7,0.3-1.4,0.4-2.2,0.4h-7.2V70.4h7.2c0.8,0,1.5,0.1,2.2,0.4c0.7,0.3,1.3,0.7,1.8,1.2
		c0.5,0.5,0.9,1.1,1.2,1.8c0.3,0.7,0.4,1.5,0.4,2.3C101.9,77,101.8,77.7,101.5,78.4z"/>
	<path class="st1" d="M18.4,76.5c0-2.4-0.7-4.5-2-6.1c-1.8-2.3-4.3-3.5-7.3-3.5c-2.9,0-5.3,1.1-7.1,3.4c-1.4,1.8-2.1,3.8-2.1,6
		c0,2.4,0.8,4.6,2.5,6.4c1.6,1.9,3.9,2.9,6.8,2.9c1.3,0,2.5-0.2,3.5-0.6c1-0.4,2-1,2.8-1.7c0.8-0.8,1.6-1.8,2.2-3L18,80h-3.5
		c-0.4,0.5-0.7,0.9-1.1,1.2c-0.5,0.5-1.2,0.8-1.9,1.1c-0.8,0.3-1.6,0.4-2.4,0.4c-1.7,0-3-0.6-4.2-1.7c-1-1.1-1.6-2.4-1.7-4.1h15.2
		L18.4,76.5z M3.5,74.2c0.4-1.2,1-2.1,1.7-2.7c1.1-1,2.4-1.5,4-1.5c0.9,0,1.8,0.2,2.7,0.6c0.8,0.4,1.5,0.9,2,1.6
		c0.4,0.5,0.8,1.2,1,2H3.5z M124.6,74.6h-11.2v-7.3h-3.1v17.8h3.1v-7.7h11.2v7.7h3.1V67.3h-3.1V74.6z M149.4,77.2
		c0,0.9-0.1,1.7-0.3,2.3c-0.2,0.6-0.6,1.2-1.1,1.6c-0.5,0.4-1.2,0.7-2,0.9c-0.8,0.2-1.9,0.3-3.1,0.3c-1.2,0-2.2-0.1-3.1-0.3
		c-0.8-0.2-1.5-0.5-2-0.9c-0.5-0.4-0.9-0.9-1.1-1.6c-0.2-0.6-0.3-1.4-0.3-2.3v-9.9h-3.2v9.9c0,1.4,0.2,2.6,0.5,3.6
		c0.4,1,0.9,1.9,1.7,2.5c0.8,0.7,1.8,1.2,3,1.5c1.2,0.3,2.7,0.5,4.4,0.5c1.7,0,3.2-0.2,4.4-0.5c1.2-0.3,2.2-0.8,3-1.5
		c0.8-0.7,1.3-1.5,1.7-2.5c0.4-1,0.5-2.2,0.5-3.6v-9.9h-3V77.2z M176.3,77.1c-0.5-0.7-1.2-1.2-2-1.4c0.3-0.1,0.6-0.2,0.9-0.5
		c0.3-0.2,0.6-0.5,0.8-0.8c0.2-0.3,0.4-0.7,0.5-1.1c0.1-0.4,0.2-0.9,0.2-1.5c0-0.7-0.1-1.4-0.4-2c-0.3-0.6-0.7-1.1-1.2-1.4
		c-0.5-0.4-1.1-0.7-1.8-0.9c-0.7-0.2-1.5-0.3-2.4-0.3h-13V85h13.3c0.9,0,1.6-0.1,2.4-0.4c0.7-0.3,1.3-0.6,1.8-1.1
		c0.5-0.5,0.9-1,1.1-1.7c0.3-0.7,0.4-1.4,0.4-2.2C177.1,78.6,176.8,77.8,176.3,77.1z M161.1,70.4h8.7c0.6,0,1.1,0,1.6,0.1
		c0.5,0,0.9,0.2,1.2,0.3c0.3,0.2,0.6,0.4,0.8,0.7c0.2,0.3,0.3,0.7,0.3,1.1c0,0.8-0.2,1.3-0.6,1.7c-0.4,0.3-1.1,0.5-2,0.5h-9.9V70.4z
		 M173.6,80.7c-0.2,0.3-0.5,0.5-0.8,0.7c-0.3,0.2-0.7,0.3-1.2,0.4c-0.5,0.1-1,0.1-1.5,0.1h-9v-4.6h10.1c0.9,0,1.5,0.2,2,0.6
		c0.5,0.4,0.7,1,0.7,1.7C173.9,80.1,173.8,80.4,173.6,80.7z"/>
</g>
<g id="Calque_2">
	<path class="st1" d="M91.6,17.2c6.4,0,11.6,5.2,11.6,11.6c0,6.4-5.2,11.6-11.6,11.6c-6.4,0-11.6-5.2-11.6-11.6
		C80.1,22.4,85.2,17.2,91.6,17.2 M91.6,11.3c-9.6,0-17.4,7.8-17.4,17.4c0,9.6,7.8,17.4,17.4,17.4c9.6,0,17.4-7.8,17.4-17.4
		C109,19.1,101.3,11.3,91.6,11.3L91.6,11.3z"/>
	<path class="st0" d="M67.3,8.1c0-4.5-3.6-8.1-8.1-8.1c-4.5,0-8.1,3.6-8.1,8.1c0,4.5,3.6,8.1,8.1,8.1C63.7,16.2,67.3,12.6,67.3,8.1z
		 M54.6,8.1c0-2.5,2.1-4.6,4.6-4.6c2.5,0,4.6,2.1,4.6,4.6c0,2.5-2.1,4.6-4.6,4.6C56.6,12.7,54.6,10.7,54.6,8.1z M66.6,35.7
		c-4.5,0-8.1,3.6-8.1,8.1c0,4.5,3.6,8.1,8.1,8.1c4.5,0,8.1-3.6,8.1-8.1C74.8,39.3,71.1,35.7,66.6,35.7z M66.6,48.4
		c-2.5,0-4.6-2.1-4.6-4.6c0-2.5,2.1-4.6,4.6-4.6c2.5,0,4.6,2.1,4.6,4.6C71.3,46.3,69.2,48.4,66.6,48.4z M116.4,35.7
		c-4.5,0-8.1,3.6-8.1,8.1c0,4.5,3.6,8.1,8.1,8.1c4.5,0,8.1-3.6,8.1-8.1C124.6,39.3,120.9,35.7,116.4,35.7z M116.4,48.4
		c-2.5,0-4.6-2.1-4.6-4.6c0-2.5,2.1-4.6,4.6-4.6c2.5,0,4.6,2.1,4.6,4.6C121,46.3,119,48.4,116.4,48.4z M115.6,13.4
		c0-4.5-3.6-8.1-8.1-8.1c-4.5,0-8.1,3.6-8.1,8.1c0,4.5,3.6,8.1,8.1,8.1C112,21.6,115.6,17.9,115.6,13.4z M107.5,18.1
		c-2.5,0-4.6-2.1-4.6-4.6c0-2.5,2.1-4.6,4.6-4.6c2.5,0,4.6,2.1,4.6,4.6C112.1,16,110,18.1,107.5,18.1z"/>
</g>
</svg>
