<svg id="Community" xmlns="http://www.w3.org/2000/svg" viewBox="-57.2 243.4 230 173"><style>.st0{fill:#009fe3}</style><path class="st0" d="M96.7 353.2c-4.5-7-10-11.5-17.7-14.1 0 0-5.9-3-21.3-3s-21.3 3-21.3 3c-7.8 2.6-13.2 7.1-17.8 14.1-1.8 2.7-2.7 8.3-2.8 11.2v4.1c0 5.6 3.8 10.2 8.6 10.2H91c4.7 0 8.6-4.6 8.6-10.2v-4.1c-.1-3-1.1-8.5-2.9-11.2zm-39-23.5c15 0 23.4-19.1 23.4-32.2 0-13-10.5-23.6-23.4-23.6-12.9 0-23.4 10.6-23.4 23.6 0 13 8.1 32.2 23.4 32.2zm-25.8 3.4c-3.8-4.8-8.3-8.1-14.4-10.1 0 0-5.5-2.8-19.9-2.8-14.4 0-19.9 2.8-19.9 2.8-7.3 2.4-12.4 6.6-16.6 13.1-1.7 2.6-2.6 7.7-2.6 10.5v3.9c0 5.3 3.6 9.5 8 9.5H6.7c.6-3.3 1.6-7 3-9.2 5.7-8.7 12.5-14.4 22.2-17.7zm-34.3-18.9c14.1 0 21.9-17.9 21.9-30.1 0-12.2-9.8-22.1-21.9-22.1-12.1 0-21.9 9.9-21.9 22.1 0 12.2 7.6 30.1 21.9 30.1zM157 346.7c-.1-2.8-1-7.9-2.6-10.5-4.2-6.5-9.3-10.7-16.6-13.1 0 0-5.5-2.8-19.9-2.8-14.4 0-19.9 2.8-19.9 2.8-6.1 2-10.6 5.3-14.4 10.1 9.7 3.3 16.5 9 22.2 17.7 1.4 2.2 2.5 5.9 3 9.2h40.1c4.4 0 8-4.3 8-9.5v-1.5c.1-.9 0-1.7.1-2.4zm-39.1-32.5c14.3 0 21.9-17.9 21.9-30.1S130 262 117.9 262c-12.1 0-21.9 9.9-21.9 22.1 0 12.2 7.8 30.1 21.9 30.1z"/></svg>