<svg id="C" xmlns="http://www.w3.org/2000/svg" viewBox="0 0 95.3 95.3"><style>.st0{fill:#249bd7}</style><path class="st0" d="M47.7 15.5c-17.7 0-32.1 14.4-32.1 32.1S30 79.7 47.7 79.7c17.7 0 32.1-14.4 32.1-32.1S65.4 15.5 47.7 15.5zm.8 42.7c1.6 0 3.1-.2 4.5-.7 1.5-.4 2.9-1 4.4-1.6V64c-2.9 1.3-6.3 2-10 2-5.3 0-9.4-1.5-12.2-4.6C32.4 58.3 31 53.8 31 48c0-3.6.7-6.9 2.1-9.6 1.4-2.8 3.4-4.9 5.9-6.4 2.6-1.5 5.6-2.2 9.1-2.2 3.8 0 7.4.8 10.9 2.5l-2.9 7.5c-1.3-.6-2.6-1.1-3.9-1.5-1.3-.4-2.7-.6-4.2-.6-2.3 0-4 .9-5.3 2.8-1.3 1.9-1.9 4.4-1.9 7.7 0 6.6 2.6 10 7.7 10zm39.4-10.5l7.4-9.6-10.5-5.8L88 20.7l-11.9-1.3-1.5-12.1-11.5 3.4-6-10.7-9.4 7.6L38.2 0l-5.8 10.7-11.7-3.4-1.3 12.1-12.1 1.3 3.4 11.7L0 38.2l7.6 9.6L0 57.1l10.7 6-3.4 11.5 12.1 1.5L20.7 88l11.7-3.2 5.8 10.5 9.6-7.4 9.4 7.4 6-10.5L74.6 88l1.5-11.9L88 74.6l-3.2-11.5 10.5-6-7.4-9.4zM47.7 81.1c-18.5 0-33.5-15-33.5-33.5s15-33.5 33.5-33.5 33.5 15 33.5 33.5c0 18.6-15 33.5-33.5 33.5z"/></svg>