<svg xmlns="http://www.w3.org/2000/svg" viewBox="0 0 113.4 113.4"><path class="st0" fill="#fff" d="M31.2 7.4l-2.4 8.2c-2.1.6-4.2 1.4-6 2.5L15.4 14l-6.6 6.6 4.1 7.4c-1.1 1.9-1.9 3.9-2.5 6l-8.2 2.4v9.4l8.2 2.4c.6 2.1 1.4 4.2 2.5 6l-4.1 7.4 6.6 6.6 7.4-4.1c1.9 1.1 3.9 1.9 6 2.5l2.4 8.2h9.4l2.4-8.2c2.1-.6 4.2-1.4 6-2.5l7.4 4.1 6.6-6.6-4-7.4c1.1-1.9 1.9-3.9 2.5-6l8.2-2.4v-9.4L61.5 34c-.6-2-1.5-4.1-2.5-6l4.1-7.4-6.7-6.6-7.4 4.1c-1.9-1.1-3.9-1.9-6-2.5l-2.4-8.2h-9.4zm4.7 19.5c7.9 0 14.3 6.4 14.3 14.3s-6.4 14.3-14.3 14.3-14.3-6.4-14.3-14.3c.1-7.9 6.5-14.3 14.3-14.3zm48.6 32.4L83 65c-1.5.4-2.9 1-4.2 1.7l-5.2-2.9-4.6 4.6 2.9 5.2c-.7 1.3-1.3 2.7-1.7 4.2l-5.7 1.6V86l5.7 1.6c.4 1.5 1 2.9 1.7 4.2L69 96.9l4.6 4.6 5.2-2.9c1.3.7 2.7 1.3 4.2 1.7l1.6 5.7h6.6l1.6-5.7c1.5-.4 2.9-1 4.2-1.7l5.2 2.9 4.6-4.6-2.9-5.2c.7-1.3 1.3-2.7 1.7-4.2l5.7-1.6v-6.6l-5.7-1.6c-.4-1.5-1-2.9-1.7-4.2l2.9-5.2-4.6-4.6-5.2 2.9c-1.3-.7-2.7-1.3-4.2-1.7l-1.6-5.7h-6.7zm3.3 15.5c4.3 0 7.8 3.5 7.8 7.8s-3.5 7.8-7.8 7.8-7.8-3.5-7.8-7.8 3.5-7.8 7.8-7.8z"/></svg>