<svg xmlns="http://www.w3.org/2000/svg" viewBox="0 0 98 98"><style>.st0{fill:#009fe3}</style><path class="st0" d="M51.6 22.5C41.3 22.5 33 30.8 33 41.1c0 5.3 2.2 10 5.8 13.4L28.3 70.3c-1 1.6-.6 3.7 1 4.7s3.7.6 4.7-1l10.5-15.8c2.2.9 4.6 1.4 7.1 1.4 10.3 0 18.6-8.3 18.6-18.6 0-10.2-8.3-18.5-18.6-18.5zm.1 31.4c-2.5 0-4.8-.7-6.8-1.9l-.2-.2c-.1-.1-.2-.1-.3-.2-3.4-2.3-5.6-6.2-5.6-10.6 0-7.1 5.8-12.9 12.9-12.9 7.1 0 12.9 5.8 12.9 12.9-.1 7.1-5.8 12.9-12.9 12.9z" id="survey"/><path class="st0" d="M49 0C21.9 0 0 21.9 0 49s21.9 49 49 49 49-21.9 49-49S76.1 0 49 0zm0 96C23 96 2 75 2 49S23 2 49 2s47 21 47 47-21 47-47 47z" id="circle"/></svg>