<svg xmlns="http://www.w3.org/2000/svg" viewBox="0 0 98 98"><style>.st0{fill:#fff}</style><path class="st0" d="M60.6 22.5H31.1c-.7 0-1.3.6-1.3 1.3v50.4c0 .7.6 1.3 1.3 1.3h35.8c.7 0 1.3-.6 1.3-1.3V30.1l-7.6-7.6zM49.3 35.3c3.2 0 5.9 2.6 5.9 5.9 0 3.2-2.1 8-5.9 8-3.8 0-5.9-4.8-5.9-8 .1-3.3 2.7-5.9 5.9-5.9zm10.5 23.2v.4c0 1.4-1 2.5-2.1 2.5H41c-1.2 0-2.1-1.1-2.1-2.5v-1c0-.7.3-2.1.7-2.8 1.1-1.7 2.5-2.9 4.4-3.5 0 0 1.5-.8 5.3-.8s5.3.8 5.3.8c2 .6 3.3 1.8 4.4 3.5.4.7.7 2.1.7 2.8.1.1.1.3.1.6zM66 32.4h-6.1c-.5 0-.9-.4-.9-.9v-6.1c0-.5.4-.9.9-.9s.9.4.9.9v5.2H66c.5 0 .9.4.9.9s-.4.9-.9.9z" id="cv"/></svg>