<svg xmlns="http://www.w3.org/2000/svg" viewBox="0 0 98 98"><style>.st0{fill:#fff}</style><path class="st0" d="M78.9 43.7c0-8.7-8.6-15.8-19.2-15.8-2.9 0-5.6.5-8 1.4-3.1-1.3-6.5-2-10.2-2-12.4 0-22.4 8.3-22.4 18.4 0 6.3 3.8 11.8 9.7 15.2L24 74.6l14-10.7c1.1.1 2.3.2 3.5.2 5.9 0 11.2-1.9 15.2-4.9 1 .1 2 .2 3 .2s2-.1 3-.2l12 9.2-4.1-11.8c5.1-2.8 8.3-7.6 8.3-12.9zm-42.6 3.9c-.5.4-1.2.7-2 .7-.9 0-1.6-.2-2.1-.7-.5-.4-.8-1.1-.8-1.9 0-.8.2-1.4.7-1.9.5-.4 1.2-.7 2.1-.7.9 0 1.6.2 2 .7.5.4.7 1.1.7 1.9.1.8-.1 1.4-.6 1.9zm7.9 0c-.5.4-1.2.7-2 .7-.9 0-1.6-.2-2.1-.7-.5-.4-.8-1.1-.8-1.9 0-.8.2-1.4.7-1.9.5-.4 1.2-.7 2.1-.7.9 0 1.6.2 2 .7.5.4.7 1.1.7 1.9.2.8-.1 1.4-.6 1.9zm8 0c-.5.4-1.2.7-2 .7-.9 0-1.6-.2-2.1-.7-.5-.4-.8-1.1-.8-1.9 0-.8.2-1.4.7-1.9.5-.4 1.2-.7 2.1-.7.9 0 1.6.2 2 .7.5.4.7 1.1.7 1.9.1.8-.1 1.4-.6 1.9zm16.2 7.9l2.7 7.9-8-6.3c-1.1.2-2.3.3-3.5.3h-.7c3.2-3.2 5.1-7.2 5.1-11.7 0-6.5-4.1-12.2-10.3-15.5 1.8-.5 3.8-.8 5.8-.8 9.7 0 17.5 6.3 17.5 14 0 5.1-3.5 9.6-8.6 12.1z" id="q_x2F_a"/></svg>