<svg xmlns="http://www.w3.org/2000/svg" viewBox="0 0 98 98"><style>.st0{fill:#fff}</style><path class="st0" d="M32.9 40.3c.9.9 2 1.4 3.3 1.4 2.2 0 3.7-1.3 4.5-4 .8-2.5 1.9-4.4 3.1-5.7 1.2-1.3 3.1-1.9 5.7-1.9 2.2 0 4 .6 5.4 1.9 1.4 1.3 2.1 2.9 2.1 4.7 0 1-.2 1.8-.7 2.7-.5.8-1 1.6-1.7 2.2-.7.7-1.8 1.7-3.2 3-1.7 1.5-3.1 2.8-4.1 3.9-1 1.1-1.8 2.3-2.4 3.8-.6 1.4-.9 3.1-.9 5.1 0 1.6.4 2.7 1.2 3.5.8.8 1.9 1.2 3.1 1.2 2.3 0 3.7-1.2 4.2-3.6.3-1.1.5-1.9.6-2.4.1-.5.3-.9.5-1.4.2-.5.6-1 1.1-1.5.5-.5 1.1-1.2 1.9-1.9 2.9-2.6 4.9-4.4 6-5.5 1.1-1.1 2.1-2.4 2.9-3.9.8-1.5 1.2-3.2 1.2-5.2 0-2.5-.7-4.9-2.1-7-1.4-2.1-3.4-3.8-6-5.1-2.6-1.2-5.6-1.9-9-1.9-3.7 0-6.8.7-9.6 2.2-2.7 1.5-4.8 3.4-6.3 5.7-1.4 2.3-2.1 4.5-2.1 6.7-.1 1.1.4 2.1 1.3 3zm19.4 33.9c1.1-.9 1.6-2.2 1.6-3.8 0-1.5-.5-2.7-1.5-3.7s-2.2-1.5-3.7-1.5-2.8.5-3.8 1.5-1.5 2.2-1.5 3.7c0 1.7.5 2.9 1.6 3.9 1.1.9 2.3 1.4 3.7 1.4 1.4-.1 2.6-.5 3.6-1.5z" id="faq"/></svg>