<svg id="lock_1_" opacity=".3" xmlns="http://www.w3.org/2000/svg" viewBox="0 0 60.9 84.9"><style>.st0{fill-rule:evenodd;clip-rule:evenodd;fill:#919aa3}</style><path class="st0" d="M55.7 29.2h-4.3v-8.1c0-11.6-9.4-21-21-21s-21 9.4-21 21v8.1H5.1c-2.8 0-5.1 2.3-5.1 5.1v45.4c0 2.8 2.3 5.1 5.1 5.1h50.6c2.8 0 5.1-2.3 5.1-5.1V34.3c.1-2.8-2.2-5.1-5.1-5.1zM32.6 58.7v6.9c0 1.2-1 2.1-2.1 2.1s-2.1-1-2.1-2.1v-6.9c-2-.8-3.4-2.8-3.4-5.1 0-3.1 2.5-5.6 5.6-5.6 3.1 0 5.6 2.5 5.6 5.6-.2 2.3-1.6 4.3-3.6 5.1zm11.1-37.3v7.7H17.1V21c0-7.3 5.9-13.3 13.3-13.3 7.3 0 13.3 6 13.3 13.3v.4z"/></svg>