<svg id="Calque_8" xmlns="http://www.w3.org/2000/svg" viewBox="0 0 276 131"><style>.st0{fill:#009fe3}.st1{fill:url(#SVGID_1_)}</style><path class="st0" d="M0 61h86V0H0v61zM1 1h84v59H1V1zm27 14.9h48v-3H28v3zm0 6.4h48v-3H28v3zm0 25.6h48v-3H28v3zM14.6 9.8c-2.7 0-4.9 2.2-4.9 4.9s2.2 4.9 4.9 4.9 4.9-2.2 4.9-4.9-2.2-4.9-4.9-4.9zM28 41.5h48v-3H28v3zm0-6.4h48v-3H28v3zm0-6.4h48v-3H28v3zm95 6.4h48v-3h-48v3zm0 6.4h48v-3h-48v3zM109.6 9.8c-2.7 0-4.9 2.2-4.9 4.9s2.2 4.9 4.9 4.9 4.9-2.2 4.9-4.9-2.2-4.9-4.9-4.9zM123 47.9h48v-3h-48v3zm0-19.2h48v-3h-48v3zm0-12.8h48v-3h-48v3zM95 61h86V0H95v61zm1-60h84v59H96V1zm27 21.3h48v-3h-48v3zm81.6-2.7c2.7 0 4.9-2.2 4.9-4.9s-2.2-4.9-4.9-4.9-4.9 2.2-4.9 4.9 2.2 4.9 4.9 4.9zM266 44.9h-48v3h48v-3zm0-6.4h-48v3h48v-3zM190 0v61h86V0h-86zm85 60h-84V1h84v59zm-9-47.1h-48v3h48v-3zm0 6.4h-48v3h48v-3zm0 12.8h-48v3h48v-3zm0-6.4h-48v3h48v-3z"/><linearGradient id="SVGID_1_" gradientUnits="userSpaceOnUse" x1="138" y1="70" x2="138" y2="131"><stop offset="0" stop-color="#009fe3"/><stop offset=".21" stop-color="#4abbeb"/><stop offset=".5" stop-color="#abdff6"/><stop offset=".702" stop-color="#e7f6fc"/><stop offset=".798" stop-color="#fff"/></linearGradient><path class="st1" d="M28 117.9h48v-3H28v3zM14.6 79.8c-2.7 0-4.9 2.2-4.9 4.9s2.2 4.9 4.9 4.9 4.9-2.2 4.9-4.9-2.2-4.9-4.9-4.9zM0 131h86V70H0v61zm1-60h84v59H1V71zm27 14.9h48v-3H28v3zm0 19.2h48v-3H28v3zm0-12.8h48v-3H28v3zm0 19.2h48v-3H28v3zm0-12.8h48v-3H28v3zm95 12.8h48v-3h-48v3zm0 6.4h48v-3h-48v3zm-13.4-38.1c-2.7 0-4.9 2.2-4.9 4.9s2.2 4.9 4.9 4.9 4.9-2.2 4.9-4.9-2.2-4.9-4.9-4.9zM95 131h86V70H95v61zm1-60h84v59H96V71zm27 21.3h48v-3h-48v3zm0 12.8h48v-3h-48v3zm0-19.2h48v-3h-48v3zm0 12.8h48v-3h-48v3zm81.6-9.1c2.7 0 4.9-2.2 4.9-4.9s-2.2-4.9-4.9-4.9-4.9 2.2-4.9 4.9 2.2 4.9 4.9 4.9zm61.4 18.9h-48v3h48v-3zM190 70v61h86V70h-86zm85 60h-84V71h84v59zm-9-15.1h-48v3h48v-3zm0-25.6h-48v3h48v-3zm0-6.4h-48v3h48v-3zm0 12.8h-48v3h48v-3zm0 6.4h-48v3h48v-3z"/></svg>