<svg id="Calque_1" xmlns="http://www.w3.org/2000/svg" viewBox="0 0 230 120"><style>.st0{fill-rule:evenodd;clip-rule:evenodd;fill:#fda000}</style><path class="st0" d="M125.9 80.6c-3.4-5.4-7.6-8.9-13.6-10.9 0 0-4.5-2.3-16.3-2.3s-16.3 2.3-16.3 2.3c-6 2-10.2 5.5-13.6 10.9-1.4 2.1-2.1 6.4-2.2 8.7v3.2c0 4.4 2.9 7.9 6.6 7.9h51c3.6 0 6.6-3.5 6.6-7.9v-3.2c-.1-2.3-.9-6.6-2.2-8.7zM96 62.3c11.5 0 18-14.9 18-25S106 19 96 19c-9.9 0-18 8.2-18 18.3 0 10.1 6.2 25 18 25zm48.1-52.7c-12.1 0-21.9 8.1-21.9 18 0 6.1 3.7 11.6 9.5 14.8L127 55.9l13.7-10.4c1.1.1 2.3.2 3.4.2 12.1 0 21.9-8.1 21.9-18 .1-10.1-9.8-18.1-21.9-18.1zm-5 19.8c-.5.4-1.1.7-2 .7-.9 0-1.5-.2-2-.6-.5-.4-.7-1-.7-1.8s.2-1.4.7-1.8c.5-.4 1.2-.7 2.1-.7.9 0 1.5.2 2 .7.5.4.7 1 .7 1.8-.1.7-.4 1.3-.8 1.7zm7.7 0c-.5.4-1.1.7-2 .7-.9 0-1.5-.2-2-.6-.5-.4-.7-1-.7-1.8s.2-1.4.7-1.8c.5-.4 1.2-.7 2.1-.7.9 0 1.5.2 2 .7.5.4.7 1 .7 1.8-.1.7-.3 1.3-.8 1.7zm7.8 0c-.5.4-1.1.7-2 .7-.9 0-1.5-.2-2-.6-.5-.4-.7-1-.7-1.8s.2-1.4.7-1.8c.5-.4 1.2-.7 2.1-.7.9 0 1.5.2 2 .7.5.4.7 1 .7 1.8-.1.7-.3 1.3-.8 1.7z"/></svg>