<svg id="Responses" xmlns="http://www.w3.org/2000/svg" viewBox="-57.2 243.4 230 173"><style>.st0{fill:#009fe3}.st1{fill:url(#SVGID_1_)}</style><path class="st0" d="M-18.7 243.9v50h153v-50h-153zm26.9 34.2L6.1 276l-7.1-7 2.1-2.1 7.1 7.1 14.1-14.1 2.1 2.1-16.2 16.1zm96.1-7.2h-60v-3h60v3zm-123 33v50h153v-50h-153zm26.9 34.2L6.1 336l-7.1-7 2.1-2.1 7.1 7.1 14.1-14.1 2.1 2.1-16.2 16.1zm96.1-7.2h-60v-3h60v3z"/><linearGradient id="SVGID_1_" gradientUnits="userSpaceOnUse" x1="57.762" y1="363.916" x2="57.762" y2="413.916"><stop offset="0" stop-color="#009fe3"/><stop offset=".24" stop-color="#4ebcec"/><stop offset=".754" stop-color="#fff"/></linearGradient><path class="st1" d="M-18.7 363.9v50h153v-50h-153zm26.9 34.2L6.1 396l-7.1-7 2.1-2.1 7.1 7.1 14.1-14.1 2.1 2.1-16.2 16.1zm96.1-7.2h-60v-3h60v3z"/></svg>