<svg xmlns="http://www.w3.org/2000/svg" viewBox="0 0 113.4 113.4"><path class="st0" fill="#fda000" d="M69.7 96.5c11.1-4.3 18.9-15.1 18.9-27.6 0-6.7-2.3-12.9-6.1-17.9.8-1.7 1.3-3.7 1.3-5.7 0-7.3-6-13.2-13.3-13.2h-.2l7.1-12-2.5-1.4L80 9.8l-7.7-4.4-5.2 8.9-2.6-1.5-23.6 39.7-5.9-3.3-5.3 9.1 24.2 13.9 5.3-9.1-5.4-3.1 5-8.4c2.2 4.2 6.7 7.1 11.8 7.1 1.1 0 2.1-.1 3.1-.4 2.3 3 3.6 6.8 3.6 10.8 0 10.1-8.2 18.3-18.4 18.3-3.2 0-6.2-.8-8.8-2.3h5.3v-7h-36v7h14.3c3.4 5.2 8.3 9.2 14.1 11.5h-27v11.5h73.1V96.6l-24.2-.1zm.9-44.2c-3.9 0-7-3.1-7-7 0-3.8 3.1-7 7-7s7 3.1 7 7c0 3.8-3.1 7-7 7z"/></svg>